# 
# Wavefront OBJ file
# Converted by the DEEP Exploration Deep Exploration 5 5.0.3.1555 Release
# Right Hemisphere, LTD
# http://www.righthemisphere.com/
# 
mtllib lagerhalle_3_LOD2.mtl
# object MDL-polym1
g MDL_polym1
v -12.14607 24.62186 -10.13777
v 7.43596 24.62186 -0.12713
v 7.43596 24.62186 -10.13777
v -12.14607 24.62186 -0.12713
v -12.14607 24.62186 -10.13777
v 7.43596 -15.02918 -10.13777
v -12.14607 -15.02918 -10.13777
v 7.43596 24.62186 -10.13777
v -12.14607 24.62186 -10.13777
v -12.14607 -15.02918 -0.12713
v -12.14607 24.62186 -0.12713
v -12.14607 -15.02918 -10.13777
v 7.43596 24.62186 -10.13777
v 7.43596 -15.02918 -0.12713
v 7.43596 -15.02918 -10.13777
v 7.43596 24.62186 -0.12713
v -3.35420 21.45974 10.13086
v -0.72990 -12.00616 10.14341
v -0.72990 21.45974 10.14341
v -3.35420 -12.00616 10.13085
v -12.14607 -24.69412 -10.13777
v 7.43596 -24.69412 -3.04269
v -12.14607 -24.69412 -3.04269
v 7.43596 -24.69412 -10.13777
v 7.43596 -24.69412 -10.13777
v -12.14607 -24.69412 -10.13777
v 7.43596 -24.69412 -3.04269
v 7.43596 -24.69412 -10.13777
v 7.43596 -15.02918 -0.12713
v -12.14607 -24.69412 -3.04269
v 7.43596 -24.69412 -3.04269
v -12.14607 -15.02918 -0.12713
v -12.14607 -24.69412 -10.13777
v -12.14607 -24.69412 -3.04269
v -12.14607 -15.02918 3.84207
v -12.14607 24.62186 3.84207
v -12.14607 -15.02918 -0.12713
v 7.43596 -15.02918 3.84207
v -12.14607 -15.02918 3.84207
v 7.43596 -15.02918 -0.12713
v 7.43596 24.62186 3.84207
v 7.43596 -15.02918 3.84207
v -12.14607 24.62186 3.84207
v 7.43596 24.62186 3.84207
v -12.14607 24.62186 3.84207
v -7.46770 -15.02918 7.30107
v -7.46770 24.62186 7.30107
v -12.14607 -15.02918 3.84207
v -12.14607 -15.02918 3.84207
v 3.22936 -15.02918 7.30107
v -7.46770 -15.02918 7.30107
v 7.43596 -15.02918 3.84207
v 7.43596 -15.02918 3.84207
v 3.22936 24.62186 7.30107
v 3.22936 -15.02918 7.30107
v 7.43596 24.62186 3.84207
v -7.46770 24.62186 7.30107
v 3.22936 24.62186 7.30107
v -4.47095 -12.00616 7.30107
v -4.47095 21.45974 7.30107
v 0.32411 -12.00616 7.30107
v 0.32411 21.45974 7.30107
v -4.47095 21.45974 7.30107
v -4.47095 -12.00616 9.50207
v -4.47095 21.45974 9.50207
v -4.47095 -12.00616 7.30107
v -4.47095 -12.00616 7.30107
v 0.32411 -12.00616 9.50207
v -4.47095 -12.00616 9.50207
v 0.32411 -12.00616 7.30107
v 0.32411 -12.00616 7.30107
v 0.32411 21.45974 9.50207
v 0.32411 -12.00616 9.50207
v 0.32411 21.45974 7.30107
v 0.32411 21.45974 7.30107
v -4.47095 21.45974 9.50207
v 0.32411 21.45974 9.50207
v -4.47095 21.45974 7.30107
v -4.47095 21.45974 9.50207
v -4.47095 -12.00616 9.50207
v -0.72990 -12.00616 10.14341
v -3.35420 -12.00616 10.13085
v 0.32411 -12.00616 9.50207
v 0.32411 21.45974 9.50207
v 0.32411 21.45974 9.50207
v -3.35420 21.45974 10.13086
v -0.72990 21.45974 10.14341
v -4.47095 21.45974 9.50207
v 7.41891 24.69412 -10.14341
v 12.14607 24.69412 -5.00299
v 12.12457 24.69412 -10.14341
v 7.41891 24.69412 -2.42059
v 7.41891 24.69412 -10.14341
v 12.12457 12.84112 -10.14341
v 7.41891 12.84112 -10.14341
v 12.12457 24.69412 -10.14341
v 7.41891 24.69412 -10.14341
v 7.41891 12.84112 -2.42059
v 7.41891 24.69412 -2.42059
v 7.41891 12.84112 -10.14341
v 12.12457 24.69412 -10.14341
v 12.14607 12.84112 -5.00299
v 12.12457 12.84112 -10.14341
v 12.14607 24.69412 -5.00299
v 7.41891 24.69412 -2.42059
v 12.14607 12.84112 -5.00299
v 12.14607 24.69412 -5.00299
v 7.41891 12.84112 -2.42059
v 7.41891 12.84112 -10.14341
v 12.14607 12.84112 -5.00299
v 7.41891 12.84112 -2.42059
v 12.12457 12.84112 -10.14341
# 112 verticies
vt 0.44359 0.62313
vt 0.09898 0.80122
vt 0.09898 0.62313
vt 0.44359 0.80122
vt 0.00000 0.00146
vt 0.80611 0.80431
vt 0.00000 0.80431
vt 0.80611 0.00146
vt 0.00377 0.30226
vt 0.60241 0.45450
vt 0.00377 0.45450
vt 0.60241 0.30226
vt 0.72640 0.00558
vt 0.15932 0.14715
vt 0.15932 0.00558
vt 0.72640 0.14715
vt 0.85573 0.53135
vt 0.88270 0.16273
vt 0.88412 0.53129
vt 0.85432 0.16279
vt 0.51045 0.61994
vt 0.86244 0.74748
vt 0.51045 0.74748
vt 0.86244 0.61994
vt 0.80611 1.00000
vt 0.00000 1.00000
vt 0.02110 0.10592
vt 0.02110 0.00558
vt 0.97689 0.12598
vt 0.76629 0.01914
vt 0.97817 0.01863
vt 0.76500 0.12650
vt 0.74833 0.30226
vt 0.74833 0.41016
vt 0.60241 0.51486
vt 0.00377 0.51486
vt 0.50920 0.80619
vt 0.85844 0.87996
vt 0.50920 0.87996
vt 0.85844 0.80619
vt 0.72640 0.20329
vt 0.15932 0.20329
vt 0.44359 0.87183
vt 0.09898 0.87183
vt 0.76438 0.56442
vt 0.81132 0.12871
vt 0.81300 0.56539
vt 0.76270 0.12775
vt 0.50535 0.87707
vt 0.77956 0.94135
vt 0.58878 0.94135
vt 0.85459 0.87707
vt 0.97459 0.12723
vt 0.92875 0.56511
vt 0.92707 0.12844
vt 0.97627 0.56391
vt 0.36125 0.93337
vt 0.17301 0.93337
vt 0.84387 0.16193
vt 0.84529 0.53049
vt 0.89576 0.16180
vt 0.89718 0.53036
vt 0.05372 0.57150
vt 0.55530 0.60449
vt 0.05372 0.60449
vt 0.55530 0.57150
vt 0.64223 0.94135
vt 0.72775 0.98226
vt 0.64223 0.98226
vt 0.72775 0.94135
vt 0.20503 0.26179
vt 0.68612 0.29741
vt 0.20503 0.29741
vt 0.68612 0.26179
vt 0.22702 0.94253
vt 0.31141 0.98169
vt 0.22702 0.98169
vt 0.31141 0.94253
vt 0.84402 0.53118
vt 0.84260 0.16262
vt 0.70895 0.99418
vt 0.66215 0.99395
vt 0.89448 0.16250
vt 0.89590 0.53106
vt 0.22413 0.97687
vt 0.28886 0.98805
vt 0.24268 0.98828
vt 0.30852 0.97687
vt 0.09928 0.62303
vt 0.01609 0.71448
vt 0.01647 0.62303
vt 0.09928 0.76042
vt 0.80540 0.00000
vt 0.99911 0.24000
vt 0.80540 0.24000
vt 0.99911 0.00000
vt 0.00000 0.00000
vt 0.24000 0.38068
vt 0.00000 0.38068
vt 0.24000 0.00000
vt 0.73440 0.00556
vt 0.56489 0.07825
vt 0.56489 0.00556
vt 0.73440 0.07825
vt 0.73187 0.11851
vt 0.55906 0.07972
vt 0.73187 0.07972
vt 0.55906 0.11851
vt 0.86775 0.62179
vt 0.94635 0.70727
vt 0.86775 0.75021
vt 0.94600 0.62179
# 112 texture verticies
vn 0.00000 1.00000 0.00000
vn 0.00000 0.00000 -1.00000
vn 0.00000 0.00000 -1.00000
vn 0.00000 0.00000 -1.00000
vn -1.00000 0.00000 0.00000
vn 1.00000 0.00000 0.00000
vn -0.17162 -0.00000 0.98516
vn 0.17598 -0.00000 0.98439
vn 0.35690 -0.00000 0.93414
vn -0.33831 -0.00000 0.94103
vn 0.00000 -1.00000 -0.00000
vn 0.00000 0.00000 -1.00000
vn 0.00000 -0.28881 0.95739
vn -0.59451 -0.00000 0.80409
vn -0.24984 -0.00000 0.96829
vn -0.15441 -0.00000 0.98801
vn 0.63513 -0.00000 0.77240
vn 0.26918 -0.00000 0.96309
vn 0.16603 -0.00000 0.98612
vn 0.00000 -0.00000 1.00000
vn -0.49063 -0.00000 0.87137
vn 0.51981 -0.00000 0.85428
vn 0.00000 0.00000 -1.00000
vn 0.99999 0.00000 -0.00418
vn 0.99999 0.00000 -0.00418
vn 0.99999 0.00000 -0.00418
vn 0.47942 -0.00000 0.87759
# 27 normals
usemtl DefaultLib_Mater
f  1/1/1 2/2/1 3/3/1
f  1/1/1 4/4/1 2/2/1
f  5/5/2 6/6/3 7/7/4
f  5/5/2 8/8/2 6/6/3
f  9/9/5 10/10/5 11/11/5
f  9/9/5 12/12/5 10/10/5
f  13/13/6 14/14/6 15/15/6
f  13/13/6 16/16/6 14/14/6
f  17/17/7 18/18/8 19/19/9
f  17/17/7 20/20/10 18/18/8
f  21/21/11 22/22/11 23/23/11
f  21/21/11 24/24/11 22/22/11
f  7/7/4 25/25/12 26/26/12
f  7/7/4 6/6/3 25/25/12
f  15/15/6 27/27/6 28/28/6
f  15/15/6 14/14/6 27/27/6
f  29/29/13 30/30/13 31/31/13
f  29/29/13 32/32/13 30/30/13
f  10/10/5 33/33/5 34/34/5
f  10/10/5 12/12/5 33/33/5
f  11/11/5 35/35/5 36/36/5
f  11/11/5 10/10/5 35/35/5
f  37/37/11 38/38/11 39/39/11
f  37/37/11 40/40/11 38/38/11
f  14/14/6 41/41/6 42/42/6
f  14/14/6 16/16/6 41/41/6
f  2/2/1 43/43/1 44/44/1
f  2/2/1 4/4/1 43/43/1
f  45/45/14 46/46/15 47/47/16
f  45/45/14 48/48/14 46/46/15
f  49/49/11 50/50/11 51/51/11
f  49/49/11 52/52/11 50/50/11
f  53/53/17 54/54/18 55/55/19
f  53/53/17 56/56/17 54/54/18
f  44/44/1 57/57/1 58/58/1
f  44/44/1 43/43/1 57/57/1
f  47/47/16 59/59/20 60/60/20
f  47/47/16 46/46/15 59/59/20
f  46/46/15 61/61/20 59/59/20
f  46/46/15 55/55/19 61/61/20
f  55/55/19 62/62/20 61/61/20
f  55/55/19 54/54/18 62/62/20
f  54/54/18 60/60/20 62/62/20
f  54/54/18 47/47/16 60/60/20
f  63/63/5 64/64/5 65/65/5
f  63/63/5 66/66/5 64/64/5
f  67/67/11 68/68/11 69/69/11
f  67/67/11 70/70/11 68/68/11
f  71/71/6 72/72/6 73/73/6
f  71/71/6 74/74/6 72/72/6
f  75/75/1 76/76/1 77/77/1
f  75/75/1 78/78/1 76/76/1
f  79/79/21 20/20/10 17/17/7
f  79/79/21 80/80/21 20/20/10
f  69/69/11 81/81/11 82/82/11
f  69/69/11 68/68/11 81/81/11
f  83/83/22 19/19/9 18/18/8
f  83/83/22 84/84/22 19/19/9
f  85/85/1 86/86/1 87/87/1
f  85/85/1 88/88/1 86/86/1
f  89/89/1 90/90/1 91/91/1
f  89/89/1 92/92/1 90/90/1
f  93/93/23 94/94/23 95/95/23
f  93/93/23 96/96/23 94/94/23
f  97/97/5 98/98/5 99/99/5
f  97/97/5 100/100/5 98/98/5
f  101/101/24 102/102/24 103/103/25
f  101/101/24 104/104/26 102/102/24
f  105/105/27 106/106/27 107/107/27
f  105/105/27 108/108/27 106/106/27
f  109/109/11 110/110/11 111/111/11
f  109/109/11 112/112/11 110/110/11
