# 
# Wavefront OBJ file
# Converted by the DEEP Exploration Deep Exploration 5 5.0.3.1555 Release
# Right Hemisphere, LTD
# http://www.righthemisphere.com/
# 
mtllib mauer_B.mtl
# object Box011
g Box011
v -6.02493 0.29490 -2.76209
v -2.63486 0.15269 -2.76209
v -2.63486 -0.28310 -2.76209
v -6.02493 -0.14089 -2.76209
v -2.63486 -0.14077 1.96567
v -2.63486 0.29502 1.96567
v -6.02493 0.29490 1.87863
v -6.02493 -0.14089 1.87863
v -2.63486 -0.28310 -2.76209
v -2.63486 -0.28310 -0.29506
v -6.02493 -0.14089 -0.29506
v -6.02493 -0.14089 -2.76209
v 6.02493 0.29490 -2.76209
v 6.02493 0.29490 -0.29506
v 6.02493 -0.14089 -0.29506
v 6.02493 -0.14089 -2.76209
v 1.66147 0.22389 -2.76209
v 1.66147 0.22389 -0.29506
v 6.02493 0.29490 -0.29506
v 6.02493 0.29490 -2.76209
v -6.02493 -0.14089 -2.76209
v -6.02493 -0.14089 -0.29506
v -6.02493 0.29490 -0.29506
v -6.02493 0.29490 -2.76209
v 1.66147 0.22389 -2.76209
v 1.66147 -0.21190 -2.76209
v 1.66147 -0.22045 1.83141
v 1.66147 0.21534 1.83141
v 1.66147 -0.21190 -2.76209
v 1.66147 -0.21190 -0.29506
v -6.02493 0.29490 -2.76209
v -6.02493 0.29490 -0.29506
v -2.63486 0.15269 -0.29506
v -2.63486 0.15269 -2.76209
v 6.02493 0.29490 -2.76209
v 6.02493 -0.14089 -2.76209
v 6.02493 -0.14089 1.93702
v 6.02493 0.29490 1.93702
v 6.02493 -0.14089 -2.76209
v 6.02493 -0.14089 -0.29506
v -2.63486 -0.14077 1.96567
v -6.02493 -0.14089 1.87863
v 6.02493 0.29490 1.93702
v 6.02493 -0.14089 1.93702
v 1.66147 0.21534 1.83141
v 6.02493 0.29490 1.93702
v -6.02493 -0.14089 1.87863
v -6.02493 0.29490 1.87863
v 1.66147 -0.22045 1.83141
v -6.02493 0.29490 1.87863
v -2.63486 0.29502 1.96567
v 6.02493 -0.14089 1.93702
v 5.67809 0.25586 1.91339
v 5.67809 0.25586 1.94074
v 5.67809 0.18665 2.00014
v 5.67809 0.23120 1.91339
v 5.68997 -0.11601 1.93128
v 5.68997 -0.11601 1.91339
v 5.57528 0.25586 1.91339
v 5.57528 0.23120 1.91339
v 5.57528 0.18665 2.00014
v 5.57528 0.25586 1.94074
v 5.56339 -0.11601 1.91339
v 5.56339 -0.11601 1.93128
v 5.67809 0.25586 1.91339
v 5.67809 0.23120 1.91339
v 5.57528 0.23120 1.91339
v 5.57528 0.25586 1.91339
v 5.68997 -0.11601 1.91339
v 5.56339 -0.11601 1.91339
v 5.68997 -0.11601 1.91339
v 5.68997 -0.11601 1.93128
v 5.56339 -0.11601 1.93128
v 5.56339 -0.11601 1.91339
v 5.68997 -0.11601 1.93128
v 5.67809 0.18665 2.00014
v 5.57528 0.18665 2.00014
v 5.56339 -0.11601 1.93128
v 5.66167 -0.23729 2.71860
v 5.66167 -0.22048 2.73947
v 5.59169 -0.22048 2.73947
v 5.59169 -0.23729 2.71860
v 5.67809 0.25586 1.94074
v 5.67809 0.25586 1.91339
v 5.57528 0.25586 1.91339
v 5.57528 0.25586 1.94074
v 5.66941 0.06875 2.44827
v 5.66941 0.04871 2.43252
v 5.58396 0.06875 2.44827
v 5.66941 0.06875 2.44827
v 5.58396 0.04871 2.43252
v 5.58396 0.06875 2.44827
v 5.67809 0.18665 2.00014
v 5.66941 0.04871 2.43252
v 5.58396 0.04871 2.43252
v 5.57528 0.18665 2.00014
v 5.66167 -0.22048 2.73947
v 5.66167 -0.23729 2.71860
v 5.59169 -0.22048 2.73947
v 5.66167 -0.22048 2.73947
v 5.59169 -0.23729 2.71860
v 5.59169 -0.22048 2.73947
v 1.91258 0.17462 1.82864
v 1.91258 0.17462 1.85599
v 1.91258 0.10542 1.91539
v 1.91258 0.14996 1.82864
v 1.92447 -0.19725 1.84652
v 1.92447 -0.19725 1.82864
v 1.80977 0.17462 1.82864
v 1.80977 0.14996 1.82864
v 1.80977 0.10542 1.91539
v 1.80977 0.17462 1.85599
v 1.79789 -0.19725 1.82864
v 1.79789 -0.19725 1.84652
v 1.91258 0.17462 1.82864
v 1.91258 0.14996 1.82864
v 1.80977 0.14996 1.82864
v 1.80977 0.17462 1.82864
v 1.92447 -0.19725 1.82864
v 1.79789 -0.19725 1.82864
v 1.92447 -0.19725 1.82864
v 1.92447 -0.19725 1.84652
v 1.79789 -0.19725 1.84652
v 1.79789 -0.19725 1.82864
v 1.92447 -0.19725 1.84652
v 1.91258 0.10542 1.91539
v 1.80977 0.10542 1.91539
v 1.79789 -0.19725 1.84652
v 1.89617 -0.31852 2.63385
v 1.89617 -0.30172 2.65472
v 1.82619 -0.30172 2.65472
v 1.82619 -0.31852 2.63385
v 1.91258 0.17462 1.85599
v 1.91258 0.17462 1.82864
v 1.80977 0.17462 1.82864
v 1.80977 0.17462 1.85599
v 1.90390 -0.01249 2.36352
v 1.90390 -0.03253 2.34777
v 1.81845 -0.01249 2.36352
v 1.90390 -0.01249 2.36352
v 1.81845 -0.03253 2.34777
v 1.81845 -0.01249 2.36352
v 1.91258 0.10542 1.91539
v 1.90390 -0.03253 2.34777
v 1.81845 -0.03253 2.34777
v 1.80977 0.10542 1.91539
v 1.89617 -0.30172 2.65472
v 1.89617 -0.31852 2.63385
v 1.82619 -0.30172 2.65472
v 1.89617 -0.30172 2.65472
v 1.82619 -0.31852 2.63385
v 1.82619 -0.30172 2.65472
v -1.78663 0.31852 1.93601
v -1.78663 0.31852 1.96336
v -1.78663 0.24932 2.02277
v -1.78663 0.29386 1.93601
v -1.77475 -0.05335 1.95390
v -1.77475 -0.05335 1.93601
v -1.88945 0.31852 1.93601
v -1.88945 0.29386 1.93601
v -1.88945 0.24932 2.02277
v -1.88945 0.31852 1.96336
v -1.90133 -0.05335 1.93601
v -1.90133 -0.05335 1.95390
v -1.78663 0.31852 1.93601
v -1.78663 0.29386 1.93601
v -1.88945 0.29386 1.93601
v -1.88945 0.31852 1.93601
v -1.77475 -0.05335 1.93601
v -1.90133 -0.05335 1.93601
v -1.77475 -0.05335 1.93601
v -1.77475 -0.05335 1.95390
v -1.90133 -0.05335 1.95390
v -1.90133 -0.05335 1.93601
v -1.77475 -0.05335 1.95390
v -1.78663 0.24932 2.02277
v -1.88945 0.24932 2.02277
v -1.90133 -0.05335 1.95390
v -1.80305 -0.17462 2.74122
v -1.80305 -0.15782 2.76209
v -1.87303 -0.15782 2.76209
v -1.87303 -0.17462 2.74122
v -1.78663 0.31852 1.96336
v -1.78663 0.31852 1.93601
v -1.88945 0.31852 1.93601
v -1.88945 0.31852 1.96336
v -1.79531 0.13141 2.47089
v -1.79531 0.11137 2.45514
v -1.88076 0.13141 2.47089
v -1.79531 0.13141 2.47089
v -1.88076 0.11137 2.45514
v -1.88076 0.13141 2.47089
v -1.78663 0.24932 2.02277
v -1.79531 0.11137 2.45514
v -1.88076 0.11137 2.45514
v -1.88945 0.24932 2.02277
v -1.80305 -0.15782 2.76209
v -1.80305 -0.17462 2.74122
v -1.87303 -0.15782 2.76209
v -1.80305 -0.15782 2.76209
v -1.87303 -0.17462 2.74122
v -1.87303 -0.15782 2.76209
v -5.73224 0.25562 1.87800
v -5.73224 0.25562 1.90535
v -5.73224 0.18642 1.96475
v -5.73224 0.23096 1.87800
v -5.72036 -0.11625 1.89588
v -5.72036 -0.11625 1.87800
v -5.83506 0.25562 1.87800
v -5.83506 0.23096 1.87800
v -5.83506 0.18642 1.96475
v -5.83506 0.25562 1.90535
v -5.84694 -0.11625 1.87800
v -5.84694 -0.11625 1.89588
v -5.73224 0.25562 1.87800
v -5.73224 0.23096 1.87800
v -5.83506 0.23096 1.87800
v -5.83506 0.25562 1.87800
v -5.72036 -0.11625 1.87800
v -5.84694 -0.11625 1.87800
v -5.72036 -0.11625 1.87800
v -5.72036 -0.11625 1.89588
v -5.84694 -0.11625 1.89588
v -5.84694 -0.11625 1.87800
v -5.72036 -0.11625 1.89588
v -5.73224 0.18642 1.96475
v -5.83506 0.18642 1.96475
v -5.84694 -0.11625 1.89588
v -5.74866 -0.23752 2.68321
v -5.74866 -0.22071 2.70408
v -5.81864 -0.22071 2.70408
v -5.81864 -0.23752 2.68321
v -5.73224 0.25562 1.90535
v -5.73224 0.25562 1.87800
v -5.83506 0.25562 1.87800
v -5.83506 0.25562 1.90535
v -5.74093 0.06851 2.41288
v -5.74093 0.04848 2.39713
v -5.82638 0.06851 2.41288
v -5.74093 0.06851 2.41288
v -5.82638 0.04848 2.39713
v -5.82638 0.06851 2.41288
v -5.73224 0.18642 1.96475
v -5.74093 0.04848 2.39713
v -5.82638 0.04848 2.39713
v -5.83506 0.18642 1.96475
v -5.74866 -0.22071 2.70408
v -5.74866 -0.23752 2.68321
v -5.81864 -0.22071 2.70408
v -5.74866 -0.22071 2.70408
v -5.81864 -0.23752 2.68321
v -5.81864 -0.22071 2.70408
v -5.79116 0.14926 2.09659
v -1.84382 0.23501 2.09372
v -1.84382 0.20470 2.21101
v -5.79116 0.11895 2.21388
v 1.85692 0.08196 2.03889
v 1.85692 0.05165 2.15618
v 5.63007 0.15789 2.14097
v 5.63007 0.12758 2.25826
v -5.79116 -0.15743 2.56125
v -1.84382 -0.10336 2.62191
v -1.84382 -0.10480 2.74304
v -5.79116 -0.15888 2.68238
v 1.85692 -0.21632 2.50572
v 1.85692 -0.21776 2.62685
v 5.63007 -0.15500 2.60430
v 5.63007 -0.15644 2.72543
v -5.79116 0.10141 2.26397
v -1.84382 0.14995 2.33459
v -1.84382 0.14851 2.45572
v -5.79116 0.09997 2.38510
v 1.85692 0.01169 2.20844
v 1.85692 0.01025 2.32957
v 5.63007 0.09244 2.30703
v 5.63007 0.09100 2.42816
# 276 verticies
vt 2.35000 0.81680
vt 1.30905 0.76985
vt 1.30905 0.62599
vt 2.35000 0.67294
vt -0.30905 0.60218
vt -0.30905 0.74604
vt -1.35000 0.81680
vt -1.35000 0.67294
vt -0.30905 0.31294
vt -0.30905 0.84465
vt -1.35000 0.84465
vt -1.35000 0.31294
vt 0.81679 0.31294
vt 0.81679 0.84465
vt 0.67293 0.84465
vt 0.67293 0.31294
vt -0.01017 0.31294
vt -0.01017 0.84465
vt 0.32706 0.31294
vt 0.32706 0.84465
vt 0.18320 0.84465
vt 0.18320 0.31294
vt -0.01017 0.79335
vt -0.01017 0.64949
vt 1.01017 0.68852
vt 1.01017 0.83238
vt 1.01017 0.31294
vt 1.01017 0.84465
vt 2.35000 0.31294
vt 2.35000 0.84465
vt 1.30905 0.84465
vt 1.30905 0.31294
vt -1.35000 0.81679
vt -1.35000 0.67293
vt 2.35000 0.67293
vt 2.35000 0.81679
vt -0.30905 1.33189
vt -1.35000 1.32571
vt 0.81679 1.32571
vt 0.67293 1.32571
vt -0.01017 1.30295
vt 0.32706 1.32571
vt 0.18320 1.32571
vt 1.01017 1.30295
vt 2.35000 1.32571
vt 1.30905 1.33189
vt 0.99466 -0.13048
vt 0.99466 -0.08534
vt 0.88044 0.01271
vt 0.95396 -0.13048
vt 0.38086 -0.10096
vt 0.38086 -0.13048
vt 0.00534 -0.13048
vt 0.04604 -0.13048
vt 0.11956 0.01271
vt 0.00534 -0.08534
vt 0.61914 -0.13048
vt 0.61914 -0.10096
vt -9.00165 0.99466
vt -9.00165 0.95396
vt -8.83195 0.95396
vt -8.83195 0.99466
vt -9.02127 0.38086
vt -8.81233 0.38086
vt 10.02127 -0.13048
vt 10.02127 -0.10096
vt 9.81233 -0.10096
vt 9.81233 -0.13048
vt 10.02127 0.38086
vt 10.00165 0.88044
vt 9.83195 0.88044
vt 9.81233 0.38086
vt 9.97455 1.19857
vt 9.97455 1.23303
vt 9.85904 1.23303
vt 9.85904 1.19857
vt -9.00165 -0.08534
vt -9.00165 -0.13048
vt -8.83195 -0.13048
vt -8.83195 -0.08534
vt 0.68582 0.75237
vt 0.65275 0.72638
vt -8.84628 0.75237
vt -8.98732 0.75237
vt 0.34725 0.72638
vt 0.31418 0.75237
vt 10.00165 0.01271
vt 9.98732 0.72638
vt 9.84628 0.72638
vt 9.83195 0.01271
vt 0.20843 1.23303
vt 0.18069 1.19857
vt -8.85904 1.23303
vt -8.97455 1.23303
vt 0.81931 1.19857
vt 0.79157 1.23303
vt 1.06983 -0.27037
vt 1.06983 -0.22523
vt 0.95560 -0.12718
vt 1.02912 -0.27037
vt 0.45603 -0.24085
vt 0.45603 -0.27037
vt -0.06983 -0.27037
vt -0.02912 -0.27037
vt 0.04440 -0.12718
vt -0.06983 -0.22523
vt 0.54397 -0.27037
vt 0.54397 -0.24085
vt -2.78641 1.06983
vt -2.78641 1.02912
vt -2.61670 1.02912
vt -2.61670 1.06983
vt -2.80602 0.45603
vt -2.59709 0.45603
vt 3.80602 -0.27037
vt 3.80602 -0.24085
vt 3.59709 -0.24085
vt 3.59709 -0.27037
vt 3.80602 0.45603
vt 3.78641 0.95560
vt 3.61670 0.95560
vt 3.59709 0.45603
vt 3.75931 1.05868
vt 3.75931 1.09314
vt 3.64380 1.09314
vt 3.64380 1.05868
vt -2.78641 -0.22523
vt -2.78641 -0.27037
vt -2.61670 -0.27037
vt -2.61670 -0.22523
vt 0.76099 0.61249
vt 0.72791 0.58649
vt -2.63103 0.61249
vt -2.77207 0.61249
vt 0.27209 0.58649
vt 0.23901 0.61249
vt 3.78641 -0.12718
vt 3.77207 0.58649
vt 3.63103 0.58649
vt 3.61670 -0.12718
vt 0.28360 1.09314
vt 0.25586 1.05868
vt -2.64380 1.09314
vt -2.75931 1.09314
vt 0.74414 1.05868
vt 0.71640 1.09314
vt 0.74414 -0.09314
vt 0.74414 -0.04800
vt 0.62992 0.05005
vt 0.70344 -0.09314
vt 0.13034 -0.06362
vt 0.13034 -0.09314
vt 0.25586 -0.09314
vt 0.29656 -0.09314
vt 0.37008 0.05005
vt 0.25586 -0.04800
vt 0.86966 -0.09314
vt 0.86966 -0.06362
vt 3.31942 0.74414
vt 3.31942 0.70344
vt 3.48913 0.70344
vt 3.48913 0.74414
vt 3.29981 0.13034
vt 3.50874 0.13034
vt -2.29981 -0.09314
vt -2.29981 -0.06362
vt -2.50874 -0.06362
vt -2.50874 -0.09314
vt -2.29981 0.13034
vt -2.31942 0.62992
vt -2.48913 0.62992
vt -2.50874 0.13034
vt -2.34652 1.23591
vt -2.34652 1.27037
vt -2.46203 1.27037
vt -2.46203 1.23591
vt 3.31942 -0.04800
vt 3.31942 -0.09314
vt 3.48913 -0.09314
vt 3.48913 -0.04800
vt 0.43530 0.78971
vt 0.40223 0.76372
vt 3.47479 0.78971
vt 3.33375 0.78971
vt 0.59777 0.76372
vt 0.56470 0.78971
vt -2.31942 0.05005
vt -2.33375 0.76372
vt -2.47479 0.76372
vt -2.48913 0.05005
vt -0.04209 1.27037
vt -0.06983 1.23591
vt 3.46203 1.27037
vt 3.34652 1.27037
vt 1.06983 1.23591
vt 1.04209 1.27037
vt 0.99428 -0.18889
vt 0.99428 -0.14376
vt 0.88006 -0.04570
vt 0.95358 -0.18889
vt 0.38048 -0.15938
vt 0.38048 -0.18889
vt 0.00572 -0.18889
vt 0.04642 -0.18889
vt 0.11994 -0.04570
vt 0.00572 -0.14376
vt 0.61952 -0.18889
vt 0.61952 -0.15938
vt 9.83195 0.99428
vt 9.83195 0.95358
vt 10.00165 0.95358
vt 10.00165 0.99428
vt 9.81233 0.38048
vt 10.02127 0.38048
vt -8.81233 -0.18889
vt -8.81233 -0.15938
vt -9.02127 -0.15938
vt -9.02127 -0.18889
vt -8.81233 0.38048
vt -8.83195 0.88006
vt -9.00165 0.88006
vt -9.02127 0.38048
vt -8.85904 1.14015
vt -8.85904 1.17461
vt -8.97455 1.17461
vt -8.97455 1.14015
vt 9.83195 -0.14376
vt 9.83195 -0.18889
vt 10.00165 -0.18889
vt 10.00165 -0.14376
vt 0.68544 0.69396
vt 0.65237 0.66797
vt 9.98732 0.69396
vt 9.84628 0.69396
vt 0.34763 0.66797
vt 0.31456 0.69396
vt -8.83195 -0.04570
vt -8.84628 0.66797
vt -8.98732 0.66797
vt -9.00165 -0.04570
vt 0.20805 1.17461
vt 0.18032 1.14015
vt 9.97455 1.17461
vt 9.85904 1.17461
vt 0.81968 1.14015
vt 0.79195 1.17461
vt -8.46732 0.62001
vt -2.31314 0.61868
vt -2.31314 0.81832
vt -8.46732 0.81787
vt 3.45655 0.61938
vt 3.45655 0.81902
vt 9.33915 0.61970
vt 9.33915 0.81756
# 254 texture verticies
vn 0.00000 -0.00000 -1.00000
vn -0.00000 -0.00000 -1.00000
vn 0.00000 -0.00000 -1.00000
vn 0.00000 0.00000 -1.00000
vn -0.00670 0.00000 0.99998
vn 0.01227 0.00000 0.99992
vn -0.02566 0.00000 0.99967
vn -0.02243 -0.99975 0.00000
vn -0.00844 -0.99976 0.02028
vn -0.03142 -0.99938 0.01570
vn -0.04191 -0.99912 0.00000
vn 1.00000 0.00000 0.00000
vn -0.01637 0.99987 0.00000
vn -0.01060 0.99990 -0.00914
vn -0.01627 0.99987 0.00134
vn -0.01627 0.99987 0.00000
vn -1.00000 0.00000 0.00000
vn -0.00000 -0.00000 -1.00000
vn -0.00000 0.00000 -1.00000
vn 0.01276 0.00000 0.99992
vn -0.00572 0.00000 0.99998
vn 0.01647 -0.99986 0.00000
vn 0.01671 -0.99986 -0.00134
vn 0.04191 0.99912 0.00000
vn 0.01571 0.99966 -0.02096
vn 0.00293 1.00000 0.00000
vn 0.00000 0.00000 -1.00000
vn 0.00000 0.00000 -1.00000
vn -0.02420 0.00000 0.99971
vn 0.01627 -0.99987 0.00000
vn 0.01627 -0.99987 0.00000
vn -0.01946 -0.99893 0.04189
vn 0.00004 -1.00000 -0.00000
vn -0.01823 0.99983 0.00000
vn 0.00120 0.99999 0.00402
vn 0.00612 -0.99981 0.01828
vn 0.02176 0.99927 -0.03144
vn 0.00124 0.99918 -0.04057
vn 0.01730 -0.99985 -0.00201
vn 0.99991 0.01171 0.00601
vn 0.99971 0.02312 0.00600
vn 0.99936 0.03467 0.00901
vn 0.99941 0.03421 -0.00003
vn -1.00000 0.00001 0.00001
vn -0.99971 0.02312 0.00601
vn -0.99991 0.01172 0.00602
vn -1.00000 0.00002 0.00002
vn -0.99941 0.03421 0.00000
vn -0.99936 0.03467 0.00902
vn 0.00000 0.00000 -1.00000
vn 0.00000 -1.00000 -0.00000
vn 0.00000 -0.22187 0.97508
vn 0.00000 -0.77898 0.62705
vn 0.00000 1.00000 0.00000
vn 0.00000 1.00000 0.00000
vn 0.99986 -0.01042 0.01326
vn 0.99934 0.02373 0.02764
vn 0.00000 0.93827 0.34591
vn 0.00000 0.93827 0.34591
vn -0.99979 -0.01262 0.01605
vn -0.99946 0.02148 0.02502
vn -0.00000 -0.95269 -0.30395
vn 0.00000 -0.95269 -0.30395
vn 0.99982 -0.01498 0.01206
vn 0.99982 -0.01172 0.01491
vn 0.00000 0.70951 0.70469
vn 0.00000 0.70951 0.70469
vn -0.99982 -0.01477 0.01189
vn -0.99981 -0.01190 0.01514
vn -0.00000 -0.70721 -0.70701
vn 0.00000 -0.70721 -0.70701
vn -0.00000 -0.70721 -0.70701
vn 0.99991 0.01171 0.00601
vn 0.99971 0.02312 0.00601
vn 0.99936 0.03467 0.00902
vn 0.99941 0.03421 0.00000
vn -0.99971 0.02312 0.00601
vn -0.99991 0.01171 0.00601
vn -0.99941 0.03421 0.00000
vn -0.99936 0.03467 0.00902
vn 0.00000 -1.00000 -0.00000
vn -0.00000 -0.22187 0.97508
vn 0.00000 -0.77897 0.62706
vn 0.00000 1.00000 0.00000
vn 0.00000 1.00000 0.00000
vn 0.99986 -0.01042 0.01326
vn 0.99934 0.02373 0.02764
vn 0.00000 0.93827 0.34591
vn 0.00000 0.93827 0.34591
vn -0.99979 -0.01262 0.01605
vn -0.99946 0.02148 0.02502
vn -0.00000 -0.95269 -0.30395
vn -0.00000 -0.95269 -0.30395
vn 0.99982 -0.01498 0.01206
vn 0.99982 -0.01172 0.01491
vn 0.00000 0.70951 0.70469
vn -0.99982 -0.01477 0.01189
vn -0.99981 -0.01190 0.01514
vn -0.00000 -0.70721 -0.70701
vn 0.00000 -0.70721 -0.70701
vn -0.00000 -0.70721 -0.70701
vn 0.99971 0.02312 0.00601
vn 0.99936 0.03467 0.00902
vn 0.99941 0.03421 0.00000
vn -0.99971 0.02312 0.00601
vn -0.99941 0.03421 0.00000
vn -0.99936 0.03467 0.00902
vn 0.00000 -1.00000 0.00000
vn 0.00000 1.00000 0.00000
vn 0.99986 -0.01042 0.01326
vn 0.99934 0.02373 0.02764
vn 0.00000 0.93827 0.34591
vn 0.00000 0.93827 0.34591
vn -0.99979 -0.01262 0.01605
vn -0.99946 0.02148 0.02502
vn -0.00000 -0.95269 -0.30395
vn 0.99982 -0.01498 0.01206
vn 0.99982 -0.01172 0.01491
vn 0.00000 0.70951 0.70469
vn 0.00000 0.70951 0.70469
vn -0.99982 -0.01477 0.01188
vn -0.99981 -0.01190 0.01514
vn -0.00000 -0.70721 -0.70701
vn 0.00000 -0.70721 -0.70701
vn -0.00000 -0.70721 -0.70701
vn 0.99971 0.02312 0.00600
vn 0.99936 0.03467 0.00901
vn 0.99941 0.03421 -0.00003
vn -0.99971 0.02312 0.00601
vn -0.99941 0.03421 0.00000
vn -0.99936 0.03467 0.00902
vn 0.00000 -1.00000 0.00000
vn -0.00000 -1.00000 -0.00000
vn 0.99986 -0.01042 0.01326
vn 0.99934 0.02373 0.02764
vn 0.00000 0.93827 0.34591
vn 0.00000 0.93827 0.34591
vn -0.99979 -0.01262 0.01605
vn -0.99946 0.02148 0.02502
vn -0.00000 -0.95269 -0.30395
vn 0.00000 -0.95269 -0.30395
vn 0.99982 -0.01498 0.01206
vn 0.99982 -0.01172 0.01491
vn 0.00000 0.70951 0.70469
vn 0.00000 0.70951 0.70469
vn -0.99982 -0.01477 0.01189
vn -0.99981 -0.01190 0.01514
vn -0.00000 -0.70721 -0.70701
vn 0.00000 -0.70721 -0.70701
vn -0.00000 -0.70721 -0.70701
vn 0.02085 -0.96799 -0.25013
vn -0.02220 -0.96796 -0.25012
vn -0.00067 -0.96820 -0.25018
vn 0.00293 -0.96819 -0.25018
vn -0.02040 -0.96800 -0.25013
vn 0.02624 -0.96787 -0.25010
vn 0.02624 -0.96787 -0.25010
vn 0.01388 -0.99983 -0.01189
vn -0.01596 -0.99980 -0.01189
vn -0.00104 -0.99993 -0.01189
vn 0.01388 -0.99983 -0.01189
vn 0.00075 -0.99993 -0.01189
vn -0.01507 -0.99982 -0.01189
vn 0.01656 -0.99979 -0.01189
vn 0.01656 -0.99979 -0.01189
vn 0.01251 -0.99985 -0.01189
vn -0.02099 -0.99971 -0.01189
vn -0.00424 -0.99992 -0.01189
vn 0.01251 -0.99985 -0.01189
vn 0.00189 -0.99993 -0.01189
vn -0.01793 -0.99977 -0.01189
vn 0.02170 -0.99969 -0.01189
vn 0.02170 -0.99969 -0.01189
# 173 normals
usemtl _1___Default
f  1/1/1 2/2/2 3/3/3
f  3/3/3 4/4/4 1/1/1
f  5/5/5 6/6/6 7/7/7
f  7/7/7 8/8/7 5/5/5
f  9/9/8 10/10/9 11/11/10
f  11/11/10 12/12/11 9/9/8
f  13/13/12 14/14/12 15/15/12
f  15/15/12 16/16/12 13/13/12
f  17/17/13 18/18/14 19/11/15
f  19/11/15 20/12/16 17/17/13
f  21/19/17 22/20/17 23/21/17
f  23/21/17 24/22/17 21/19/17
f  25/23/18 26/24/19 3/3/3
f  3/3/3 2/2/2 25/23/18
f  27/25/20 28/26/21 6/6/6
f  6/6/6 5/5/5 27/25/20
f  29/27/22 30/28/23 10/10/9
f  10/10/9 9/9/8 29/27/22
f  31/29/24 32/30/24 33/31/25
f  33/31/25 34/32/26 31/29/24
f  34/32/26 33/31/25 18/18/14
f  18/18/14 17/17/13 34/32/26
f  35/33/27 36/34/28 26/24/19
f  26/24/19 25/23/18 35/33/27
f  37/35/29 38/36/29 28/26/21
f  28/26/21 27/25/20 37/35/29
f  39/29/30 40/30/31 30/28/23
f  30/28/23 29/27/22 39/29/30
f  41/37/32 42/38/33 11/11/10
f  11/11/10 10/10/9 41/37/32
f  43/39/12 44/40/12 15/15/12
f  15/15/12 14/14/12 43/39/12
f  45/41/34 46/38/34 19/11/34
f  19/11/15 18/18/14 45/41/35
f  47/42/17 48/43/17 23/21/17
f  23/21/17 22/20/17 47/42/17
f  49/44/36 41/37/32 10/10/9
f  10/10/9 30/28/23 49/44/36
f  50/45/37 51/46/38 33/31/25
f  33/31/25 32/30/24 50/45/37
f  51/46/38 45/41/35 18/18/14
f  18/18/14 33/31/25 51/46/38
f  52/45/39 49/44/36 30/28/23
f  30/28/23 40/30/31 52/45/39
usemtl _2___Default
f  53/47/12 54/48/12 55/49/40
f  55/49/40 56/50/41 53/47/12
f  56/50/41 55/49/40 57/51/42
f  57/51/42 58/52/43 56/50/41
f  59/53/44 60/54/45 61/55/46
f  61/55/46 62/56/47 59/53/44
f  60/54/45 63/57/48 64/58/49
f  64/58/49 61/55/46 60/54/45
f  65/59/50 66/60/50 67/61/50
f  67/61/50 68/62/50 65/59/50
f  66/60/50 69/63/50 70/64/50
f  70/64/50 67/61/50 66/60/50
f  71/65/51 72/66/51 73/67/51
f  73/67/51 74/68/51 71/65/51
f  75/69/52 76/70/52 77/71/52
f  77/71/52 78/72/52 75/69/52
f  79/73/53 80/74/53 81/75/53
f  81/75/53 82/76/53 79/73/53
f  83/77/54 84/78/54 85/79/54
f  85/79/55 86/80/55 83/77/55
f  54/48/56 87/81/56 88/82/56
f  88/82/57 55/49/57 54/48/57
f  86/80/58 89/83/58 90/84/58
f  90/84/59 83/77/59 86/80/59
f  61/55/60 91/85/60 92/86/60
f  92/86/61 62/56/61 61/55/61
f  93/87/62 94/88/62 95/89/62
f  95/89/63 96/90/63 93/87/63
f  97/91/64 98/92/64 88/82/64
f  88/82/65 87/81/65 97/91/65
f  99/93/66 100/94/66 90/84/66
f  90/84/67 89/83/67 99/93/67
f  101/95/68 102/96/68 92/86/68
f  92/86/69 91/85/69 101/95/69
f  79/73/70 82/76/71 95/89/70
f  95/89/70 94/88/72 79/73/70
f  103/97/12 104/98/12 105/99/73
f  105/99/73 106/100/74 103/97/12
f  106/100/74 105/99/73 107/101/75
f  107/101/75 108/102/76 106/100/74
f  109/103/17 110/104/77 111/105/78
f  111/105/78 112/106/17 109/103/17
f  110/104/77 113/107/79 114/108/80
f  114/108/80 111/105/78 110/104/77
f  115/109/50 116/110/50 117/111/50
f  117/111/50 118/112/50 115/109/50
f  116/110/50 119/113/50 120/114/50
f  120/114/50 117/111/50 116/110/50
f  121/115/81 122/116/81 123/117/81
f  123/117/81 124/118/81 121/115/81
f  125/119/82 126/120/82 127/121/82
f  127/121/52 128/122/52 125/119/52
f  129/123/83 130/124/83 131/125/83
f  131/125/83 132/126/83 129/123/83
f  133/127/84 134/128/84 135/129/84
f  135/129/85 136/130/85 133/127/85
f  104/98/86 137/131/86 138/132/86
f  138/132/87 105/99/87 104/98/87
f  136/130/88 139/133/88 140/134/88
f  140/134/89 133/127/89 136/130/89
f  111/105/90 141/135/90 142/136/90
f  142/136/91 112/106/91 111/105/91
f  143/137/92 144/138/92 145/139/92
f  145/139/93 146/140/93 143/137/93
f  147/141/94 148/142/94 138/132/94
f  138/132/95 137/131/95 147/141/95
f  149/143/66 150/144/66 140/134/66
f  140/134/96 139/133/96 149/143/96
f  151/145/97 152/146/97 142/136/97
f  142/136/98 141/135/98 151/145/98
f  129/123/99 132/126/100 145/139/99
f  145/139/99 144/138/101 129/123/99
f  153/147/12 154/148/12 155/149/73
f  155/149/73 156/150/102 153/147/12
f  156/150/102 155/149/73 157/151/103
f  157/151/103 158/152/104 156/150/102
f  159/153/17 160/154/105 161/155/78
f  161/155/78 162/156/17 159/153/17
f  160/154/105 163/157/106 164/158/107
f  164/158/107 161/155/78 160/154/105
f  165/159/50 166/160/50 167/161/50
f  167/161/50 168/162/50 165/159/50
f  166/160/50 169/163/50 170/164/50
f  170/164/50 167/161/50 166/160/50
f  171/165/108 172/166/108 173/167/108
f  173/167/108 174/168/108 171/165/108
f  175/169/82 176/170/82 177/171/82
f  177/171/52 178/172/52 175/169/52
f  179/173/53 180/174/53 181/175/53
f  181/175/53 182/176/53 179/173/53
f  183/177/109 184/178/109 185/179/109
f  185/179/109 186/180/109 183/177/109
f  154/148/110 187/181/110 188/182/110
f  188/182/111 155/149/111 154/148/111
f  186/180/112 189/183/112 190/184/112
f  190/184/113 183/177/113 186/180/113
f  161/155/114 191/185/114 192/186/114
f  192/186/115 162/156/115 161/155/115
f  193/187/116 194/188/116 195/189/116
f  195/189/93 196/190/93 193/187/93
f  197/191/117 198/192/117 188/182/117
f  188/182/118 187/181/118 197/191/118
f  199/193/119 200/194/119 190/184/119
f  190/184/120 189/183/120 199/193/120
f  201/195/121 202/196/121 192/186/121
f  192/186/122 191/185/122 201/195/122
f  179/173/123 182/176/124 195/189/123
f  195/189/123 194/188/125 179/173/123
f  203/197/12 204/198/12 205/199/40
f  205/199/40 206/200/126 203/197/12
f  206/200/126 205/199/40 207/201/127
f  207/201/127 208/202/128 206/200/126
f  209/203/44 210/204/129 211/205/46
f  211/205/46 212/206/47 209/203/44
f  210/204/129 213/207/130 214/208/131
f  214/208/131 211/205/46 210/204/129
f  215/209/50 216/210/50 217/211/50
f  217/211/50 218/212/50 215/209/50
f  216/210/50 219/213/50 220/214/50
f  220/214/50 217/211/50 216/210/50
f  221/215/132 222/216/132 223/217/132
f  223/217/133 224/218/133 221/215/133
f  225/219/52 226/220/52 227/221/52
f  227/221/52 228/222/52 225/219/52
f  229/223/83 230/224/83 231/225/83
f  231/225/83 232/226/83 229/223/83
f  233/227/54 234/228/54 235/229/54
f  235/229/55 236/230/55 233/227/55
f  204/198/134 237/231/134 238/232/134
f  238/232/135 205/199/135 204/198/135
f  236/230/136 239/233/136 240/234/136
f  240/234/137 233/227/137 236/230/137
f  211/205/138 241/235/138 242/236/138
f  242/236/139 212/206/139 211/205/139
f  243/237/140 244/238/140 245/239/140
f  245/239/141 246/240/141 243/237/141
f  247/241/142 248/242/142 238/232/142
f  238/232/143 237/231/143 247/241/143
f  249/243/144 250/244/144 240/234/144
f  240/234/145 239/233/145 249/243/145
f  251/245/146 252/246/146 242/236/146
f  242/236/147 241/235/147 251/245/147
f  229/223/148 232/226/149 245/239/148
f  245/239/148 244/238/150 229/223/148
usemtl _3___Default
f  253/247/151 254/248/152 255/249/153
f  255/249/153 256/250/151 253/247/151
f  254/248/152 257/251/154 258/252/155
f  258/252/155 255/249/153 254/248/152
f  257/251/154 259/253/156 260/254/157
f  260/254/157 258/252/155 257/251/154
f  261/247/158 262/248/159 263/249/160
f  263/249/160 264/250/161 261/247/158
f  262/248/159 265/251/162 266/252/163
f  266/252/163 263/249/160 262/248/159
f  265/251/162 267/253/164 268/254/165
f  268/254/165 266/252/163 265/251/162
f  269/247/166 270/248/167 271/249/168
f  271/249/168 272/250/169 269/247/166
f  270/248/167 273/251/170 274/252/171
f  274/252/171 271/249/168 270/248/167
f  273/251/170 275/253/172 276/254/173
f  276/254/173 274/252/171 273/251/170
