# 
# Wavefront OBJ file
# Converted by the DEEP Exploration Deep Exploration 5 5.0.3.1555 Release
# Right Hemisphere, LTD
# http://www.righthemisphere.com/
# 
mtllib steigrohr_kraftwerk.mtl
# object Object212
g Object212
v -0.46844 1.08207 11.98775
v -0.46785 -0.41269 11.98843
v -0.56280 -0.41274 11.98860
v -0.56342 1.16867 11.98787
v -0.56264 -0.41269 12.08457
v -0.46768 -0.41264 12.08441
v -0.46828 1.08211 12.08372
v -0.56326 1.16871 12.08384
v 0.56325 -0.41214 11.98670
v 0.46830 -0.41219 11.98686
v 0.46771 1.08256 11.98618
v 0.56263 1.16926 11.98598
v 0.46787 1.08261 12.08215
v 0.46846 -0.41215 12.08283
v 0.56342 -0.41210 12.08267
v 0.56279 1.16931 12.08195
v -0.56280 -0.41274 11.98860
v -0.56264 -0.41269 12.08457
v -0.56342 1.16867 11.98787
v -0.56326 1.16871 12.08384
v 0.56263 1.16926 11.98598
v 0.56279 1.16931 12.08195
v 0.56325 -0.41214 11.98670
v 0.56342 -0.41210 12.08267
v -0.56342 1.16867 11.98787
v -0.56326 1.16871 12.08384
v 0.56263 1.16926 11.98598
v 0.56279 1.16931 12.08195
v -0.46785 -0.41269 11.98843
v -0.46844 1.08207 11.98775
v -0.46768 -0.41264 12.08441
v -0.46828 1.08211 12.08372
v 0.46771 1.08256 11.98618
v 0.46830 -0.41219 11.98686
v 0.46787 1.08261 12.08215
v 0.46846 -0.41215 12.08283
v -0.46844 1.08207 11.98775
v 0.46771 1.08256 11.98618
v -0.46828 1.08211 12.08372
v 0.46787 1.08261 12.08215
v -0.46844 1.08207 1.81942
v -0.46785 -0.41269 1.82010
v -0.56280 -0.41274 1.82027
v -0.56342 1.16867 1.81954
v -0.56263 -0.41269 1.91624
v -0.46768 -0.41264 1.91608
v -0.46827 1.08211 1.91539
v -0.56326 1.16871 1.91551
v 0.56326 -0.41214 1.81837
v 0.46830 -0.41219 1.81853
v 0.46771 1.08256 1.81784
v 0.56263 1.16926 1.81764
v 0.46787 1.08261 1.91382
v 0.46846 -0.41215 1.91450
v 0.56342 -0.41210 1.91434
v 0.56279 1.16931 1.91362
v -0.56280 -0.41274 1.82027
v -0.56263 -0.41269 1.91624
v -0.56342 1.16867 1.81954
v -0.56326 1.16871 1.91551
v 0.56263 1.16926 1.81764
v 0.56279 1.16931 1.91362
v 0.56326 -0.41214 1.81837
v 0.56342 -0.41210 1.91434
v -0.56342 1.16867 1.81954
v -0.56326 1.16871 1.91551
v 0.56263 1.16926 1.81764
v 0.56279 1.16931 1.91362
v -0.46785 -0.41269 1.82010
v -0.46844 1.08207 1.81942
v -0.46768 -0.41264 1.91608
v -0.46827 1.08211 1.91539
v 0.46771 1.08256 1.81784
v 0.46830 -0.41219 1.81853
v 0.46787 1.08261 1.91382
v 0.46846 -0.41215 1.91450
v -0.46844 1.08207 1.81942
v 0.46771 1.08256 1.81784
v -0.46827 1.08211 1.91539
v 0.46787 1.08261 1.91382
v -0.46844 1.08207 -7.37499
v -0.46785 -0.41269 -7.37431
v -0.56280 -0.41274 -7.37414
v -0.56342 1.16867 -7.37487
v -0.56263 -0.41269 -7.27817
v -0.46768 -0.41264 -7.27833
v -0.46827 1.08211 -7.27901
v -0.56326 1.16871 -7.27889
v 0.56326 -0.41214 -7.37604
v 0.46830 -0.41219 -7.37588
v 0.46771 1.08256 -7.37656
v 0.56263 1.16926 -7.37676
v 0.46788 1.08261 -7.28059
v 0.46847 -0.41215 -7.27991
v 0.56342 -0.41210 -7.28007
v 0.56279 1.16931 -7.28079
v -0.56280 -0.41274 -7.37414
v -0.56263 -0.41269 -7.27817
v -0.56342 1.16867 -7.37487
v -0.56326 1.16871 -7.27889
v 0.56263 1.16926 -7.37676
v 0.56279 1.16931 -7.28079
v 0.56326 -0.41214 -7.37604
v 0.56342 -0.41210 -7.28007
v -0.56342 1.16867 -7.37487
v -0.56326 1.16871 -7.27889
v 0.56263 1.16926 -7.37676
v 0.56279 1.16931 -7.28079
v -0.46785 -0.41269 -7.37431
v -0.46844 1.08207 -7.37499
v -0.46768 -0.41264 -7.27833
v -0.46827 1.08211 -7.27901
v 0.46771 1.08256 -7.37656
v 0.46830 -0.41219 -7.37588
v 0.46788 1.08261 -7.28059
v 0.46847 -0.41215 -7.27991
v -0.46844 1.08207 -7.37499
v 0.46771 1.08256 -7.37656
v -0.46827 1.08211 -7.27901
v 0.46788 1.08261 -7.28059
v 0.00402 0.63128 5.34466
v 0.00628 0.19482 16.47504
v 0.31516 0.32308 16.47446
v 0.44209 0.63208 16.47411
v 0.31492 0.94095 16.47419
v 0.00594 1.06888 16.47465
v -0.30294 0.94062 16.47523
v -0.43121 0.63162 16.47558
v 0.00402 0.63128 5.34466
v -0.30270 0.32275 16.47551
v -0.30270 0.32275 16.47551
v -0.46864 -1.16923 -16.03774
v -0.33973 -1.16902 -15.72879
v -0.34144 -0.23468 -15.72921
v -0.47035 -0.20475 -16.03818
v -0.34413 0.02247 -15.67950
v -0.47305 0.12399 -15.97458
v -0.34940 0.18828 -15.59532
v -0.48228 0.39531 -15.83183
v -0.34787 0.28065 -15.45836
v -0.47924 0.56874 -15.57183
v -0.34074 0.31373 -15.18951
v -0.46929 0.62165 -15.21141
v -0.34074 0.31373 -15.18951
v -0.43121 0.63162 16.47558
v -0.46929 0.62165 -15.21141
v -0.34077 -1.16931 -16.34639
v -0.34250 -0.17563 -16.34684
v -0.34520 0.22659 -16.26936
v -0.35036 0.60155 -16.06952
v -0.34848 0.85697 -15.68574
v -0.34106 0.92970 -15.23448
v -0.30294 0.94062 16.47523
v -0.34106 0.92970 -15.23448
v -0.03206 -1.16920 -16.47512
v -0.34077 -1.16931 -16.34639
v -0.34250 -0.17563 -16.34684
v -0.03246 -0.16328 -16.47558
v -0.34520 0.22659 -16.26936
v -0.03248 0.26814 -16.39153
v -0.35036 0.60155 -16.06952
v -0.03227 0.68738 -16.16826
v -0.35036 0.60155 -16.06952
v -0.34848 0.85697 -15.68574
v -0.03165 0.97673 -15.73321
v -0.03227 0.68738 -16.16826
v -0.34106 0.92970 -15.23448
v -0.03086 1.05702 -15.24459
v -0.03086 1.05702 -15.24459
v -0.34106 0.92970 -15.23448
v 0.27803 -0.17530 -16.34789
v 0.27709 -1.16898 -16.34743
v 0.27934 0.22692 -16.27041
v 0.28622 0.60188 -16.07059
v 0.28543 0.85730 -15.68680
v 0.28622 0.60188 -16.07059
v 0.27814 0.93003 -15.23553
v 0.27814 0.93003 -15.23553
v 0.40695 -0.20429 -16.03965
v 0.40465 -1.16877 -16.03921
v 0.27709 -1.16898 -16.34743
v 0.27803 -0.17530 -16.34789
v 0.40960 0.12446 -15.97607
v 0.27934 0.22692 -16.27041
v 0.41910 0.39579 -15.83335
v 0.28622 0.60188 -16.07059
v 0.41679 0.56921 -15.57334
v 0.28543 0.85730 -15.68680
v 0.27814 0.93003 -15.23553
v 0.40668 0.62211 -15.21289
v 0.40668 0.62211 -15.21289
v 0.27910 -0.23435 -15.73025
v 0.27813 -1.16870 -15.72983
v 0.28042 0.02280 -15.68055
v 0.28718 0.18861 -15.59639
v 0.28604 0.28098 -15.45943
v 0.27845 0.31406 -15.19056
v 0.27845 0.31406 -15.19056
v -0.03095 -0.24671 -15.60151
v -0.03058 -1.16880 -15.60109
v 0.27813 -1.16870 -15.72983
v 0.27910 -0.23435 -15.73025
v -0.03096 -0.01969 -15.55839
v 0.28042 0.02280 -15.68055
v -0.03091 0.10372 -15.49764
v 0.28718 0.18861 -15.59639
v 0.28604 0.28098 -15.45943
v -0.03079 0.16215 -15.41195
v -0.03091 0.10372 -15.49764
v 0.28718 0.18861 -15.59639
v 0.27845 0.31406 -15.19056
v -0.03041 0.18675 -15.18045
v -0.03041 0.18675 -15.18045
v -0.33973 -1.16902 -15.72879
v -0.34144 -0.23468 -15.72921
v -0.34413 0.02247 -15.67950
v -0.34940 0.18828 -15.59532
v -0.34787 0.28065 -15.45836
v -0.34940 0.18828 -15.59532
v -0.34074 0.31373 -15.18951
# 220 verticies
vt 12.65280 0.29189
vt 13.15608 0.29170
vt 13.15610 0.32335
vt 12.62364 0.32356
vt -12.15609 0.32329
vt -12.15607 0.29164
vt -11.65278 0.29184
vt -11.62363 0.32350
vt 13.15590 -0.05200
vt 13.15592 -0.02035
vt 12.65263 -0.02015
vt 12.62344 -0.05179
vt -11.65262 -0.02021
vt -12.15590 -0.02041
vt -12.15589 -0.05206
vt -11.62342 -0.05185
vt 13.15610 5.87225
vt 13.15609 5.90424
vt 12.62364 5.87201
vt 12.62363 5.90400
vt -11.62344 5.87138
vt -11.62342 5.90337
vt -12.15590 5.87162
vt -12.15589 5.90361
vt 0.32356 5.87201
vt 0.32350 5.90400
vt -0.05179 5.87138
vt -0.05185 5.90337
vt -12.15608 5.87219
vt -11.65280 5.87197
vt -12.15607 5.90419
vt -11.65278 5.90396
vt 12.65263 5.87144
vt 13.15592 5.87167
vt 12.65262 5.90343
vt 13.15590 5.90366
vt 0.70811 5.87197
vt 1.02015 5.87144
vt 0.70816 5.90396
vt 1.02021 5.90343
vt 13.15610 2.48281
vt 13.15609 2.51480
vt 12.62364 2.48256
vt 12.62363 2.51455
vt -11.62344 2.48193
vt -11.62342 2.51392
vt -12.15590 2.48217
vt -12.15589 2.51416
vt 0.32356 2.48256
vt 0.32350 2.51455
vt -0.05179 2.48193
vt -0.05185 2.51392
vt -12.15608 2.48275
vt -11.65280 2.48253
vt -12.15607 2.51474
vt -11.65278 2.51451
vt 12.65263 2.48200
vt 13.15592 2.48223
vt 12.65262 2.51399
vt 13.15590 2.51422
vt 0.70811 2.48253
vt 1.02015 2.48200
vt 0.70816 2.51451
vt 1.02021 2.51399
vt 13.15610 -0.58200
vt 13.15609 -0.55001
vt 12.62364 -0.58224
vt 12.62363 -0.55025
vt -11.62344 -0.58287
vt -11.62342 -0.55088
vt -12.15590 -0.58263
vt -12.15589 -0.55064
vt 0.32356 -0.58224
vt 0.32350 -0.55025
vt -0.05179 -0.58287
vt -0.05185 -0.55088
vt -12.15608 -0.58205
vt -11.65280 -0.58228
vt -12.15607 -0.55006
vt -11.65278 -0.55029
vt 12.65263 -0.58280
vt 13.15592 -0.58258
vt 12.65262 -0.55081
vt 13.15590 -0.55058
vt 0.70811 -0.58228
vt 1.02015 -0.58280
vt 0.70816 -0.55029
vt 1.02021 -0.55081
vt 0.53000 1.39400
vt 0.25754 3.49810
vt 0.38362 3.49799
vt 0.50144 3.49793
vt 0.61860 3.49794
vt 0.74272 3.49802
vt 0.87139 3.49814
vt 0.99859 3.49820
vt 1.53000 1.39400
vt 1.12668 3.49819
vt 0.12668 3.49819
vt 13.41081 -3.27986
vt 13.41074 -3.17688
vt 13.09615 -3.17702
vt 13.08607 -3.28001
vt 13.00957 -3.16045
vt 12.97538 -3.25881
vt 12.95374 -3.13239
vt 12.88403 -3.21123
vt 12.92264 -3.08674
vt 12.82564 -3.12456
vt 12.91150 -2.99712
vt 12.80782 -3.00442
vt 0.11917 -2.48779
vt -0.00140 3.49820
vt 0.00208 -2.49193
vt 13.41084 -3.38275
vt 13.07627 -3.38290
vt 12.94084 -3.35707
vt 12.81459 -3.29045
vt 12.72859 -3.16253
vt 12.70410 -3.01211
vt -0.12861 3.49814
vt -0.11595 -2.49629
vt 13.41080 0.33643
vt 13.41084 0.43934
vt 13.07627 0.43992
vt 13.07211 0.33657
vt 12.94084 0.44082
vt 12.92685 0.33658
vt 12.81459 0.44254
vt 12.78569 0.33651
vt 0.25254 -3.29045
vt 0.25191 -3.16253
vt 0.14630 -3.17835
vt 0.14651 -3.32337
vt 0.24944 -3.01211
vt 0.14604 -3.01548
vt 0.75661 -2.49820
vt 0.88405 -2.49629
vt 13.07615 0.23307
vt 13.41073 0.23339
vt 12.94073 0.23264
vt 12.81448 0.23034
vt 0.04061 -3.16288
vt 0.04034 -3.29081
vt 0.04304 -3.01246
vt 0.62521 -2.49649
vt -12.08592 -3.28050
vt -12.41066 -3.28035
vt -12.41073 -3.38309
vt -12.07615 -3.38324
vt -11.97523 -3.25931
vt -11.94073 -3.35742
vt -11.88387 -3.21173
vt -11.81448 -3.29081
vt -11.82548 -3.12506
vt -11.72848 -3.16288
vt -11.70399 -3.01246
vt -11.80767 -3.00491
vt 0.49791 -2.49221
vt -12.09604 -3.17737
vt -12.41063 -3.17722
vt -12.00946 -3.16080
vt -11.95363 -3.13275
vt -11.92253 -3.08709
vt -11.91139 -2.99747
vt 0.37189 -2.48799
vt -12.10020 0.33606
vt -12.41067 0.33594
vt -12.41063 0.23304
vt -12.09604 0.23272
vt -12.02376 0.33607
vt -12.00946 0.23228
vt -11.98221 0.33605
vt -11.95363 0.23002
vt 0.95960 -3.08709
vt 0.85399 -3.07126
vt 0.85395 -3.09983
vt 0.95998 -3.13275
vt 0.95707 -2.99747
vt 0.85412 -2.99410
vt 0.24374 -2.48608
vt -12.41074 0.43899
vt -12.09615 0.43956
vt -12.00957 0.44046
vt -11.95374 0.44222
vt 0.74830 -3.08674
vt 0.74778 -3.13239
vt 0.75067 -2.99712
# 188 texture verticies
vn -0.00169 -0.00047 -1.00000
vn -0.00173 -0.00045 -1.00000
vn -0.00170 -0.00046 -1.00000
vn -0.00167 -0.00047 -1.00000
vn 0.00168 0.00046 1.00000
vn 0.00169 0.00046 1.00000
vn 0.00168 0.00046 1.00000
vn 0.00168 0.00047 1.00000
vn -0.00168 -0.00046 -1.00000
vn -0.00167 -0.00046 -1.00000
vn -0.00168 -0.00046 -1.00000
vn -0.00169 -0.00047 -1.00000
vn 0.00169 0.00046 1.00000
vn 0.00167 0.00046 1.00000
vn 0.00169 0.00046 1.00000
vn 0.00170 0.00047 1.00000
vn -1.00000 -0.00039 0.00170
vn -1.00000 -0.00040 0.00168
vn 1.00000 0.00039 -0.00170
vn 1.00000 0.00039 -0.00170
vn -0.00053 1.00000 -0.00040
vn -0.00053 1.00000 -0.00048
vn 1.00000 0.00039 -0.00170
vn 1.00000 0.00039 -0.00169
vn -1.00000 -0.00039 0.00169
vn 0.00053 -1.00000 0.00048
vn 0.00053 -1.00000 0.00044
vn -0.00169 -0.00047 -1.00000
vn -0.00173 -0.00045 -1.00000
vn -0.00169 -0.00046 -1.00000
vn -0.00167 -0.00048 -1.00000
vn 0.00168 0.00046 1.00000
vn 0.00169 0.00046 1.00000
vn 0.00168 0.00046 1.00000
vn 0.00168 0.00047 1.00000
vn -0.00168 -0.00046 -1.00000
vn -0.00169 -0.00047 -1.00000
vn 0.00168 0.00047 1.00000
vn 0.00166 0.00046 1.00000
vn 0.00169 0.00046 1.00000
vn 0.00170 0.00047 1.00000
vn -1.00000 -0.00039 0.00170
vn -1.00000 -0.00040 0.00168
vn 1.00000 0.00039 -0.00170
vn -0.00053 1.00000 -0.00040
vn 1.00000 0.00039 -0.00170
vn 1.00000 0.00039 -0.00169
vn 0.00053 -1.00000 0.00048
vn 0.00053 -1.00000 0.00044
vn -0.00169 -0.00046 -1.00000
vn -0.00167 -0.00047 -1.00000
vn 0.00168 0.00046 1.00000
vn 0.00168 0.00046 1.00000
vn 0.00168 0.00046 1.00000
vn 0.00168 0.00047 1.00000
vn -0.00168 -0.00046 -1.00000
vn -0.00167 -0.00046 -1.00000
vn -0.00168 -0.00046 -1.00000
vn -0.00168 -0.00047 -1.00000
vn 0.00169 0.00046 1.00000
vn 0.00168 0.00046 1.00000
vn 0.00169 0.00046 1.00000
vn 0.00169 0.00047 1.00000
vn 1.00000 0.00039 -0.00170
vn 1.00000 0.00039 -0.00170
vn -0.00053 1.00000 -0.00040
vn -0.00053 1.00000 -0.00048
vn 1.00000 0.00039 -0.00170
vn 1.00000 0.00039 -0.00169
vn -1.00000 -0.00039 0.00169
vn 0.00053 -1.00000 0.00048
vn 0.00053 -1.00000 0.00044
vn -0.89537 -0.37143 0.24566
vn 0.00147 -0.01655 0.99986
vn 0.38064 -0.92199 0.07102
vn 0.92115 -0.38296 0.06948
vn 0.92046 0.38463 0.06940
vn 0.37884 0.92274 0.07088
vn 0.70427 0.70367 0.09409
vn 0.99924 0.00043 0.03907
vn 0.92268 0.38388 0.03607
vn -0.00550 -0.01691 0.99984
vn -0.99036 -0.00172 0.13849
vn -0.92289 -0.00151 0.38507
vn -0.92347 -0.02852 0.38261
vn -0.99983 -0.01851 -0.00081
vn -0.92397 -0.12078 0.36290
vn -0.99927 -0.03664 -0.01042
vn -0.92148 -0.26597 0.28308
vn -0.99661 0.02877 -0.07707
vn -0.92187 -0.36559 0.12842
vn -0.99798 0.06332 0.00487
vn -0.92226 -0.37994 0.07121
vn -0.98952 -0.13757 0.04392
vn -0.92327 -0.38414 0.00122
vn -0.92285 -0.38516 0.00123
vn -0.92384 -0.00180 -0.38278
vn -0.92432 0.04335 -0.37916
vn -0.92321 0.13193 -0.36095
vn -0.92202 0.28361 -0.26353
vn -0.92130 0.36541 -0.13296
vn -0.92022 0.38939 -0.03973
vn -0.92359 0.38338 0.00099
vn -0.92319 0.38435 0.00098
vn -0.00168 -0.00073 -1.00000
vn -0.38486 -0.00109 -0.92297
vn -0.38526 0.05704 -0.92104
vn -0.00149 0.12653 -0.99196
vn -0.38297 0.26240 -0.88571
vn -0.00123 0.37925 -0.92529
vn -0.37475 0.43398 -0.81928
vn -0.00172 0.47005 -0.88264
vn -0.36914 0.77430 -0.51399
vn -0.37951 0.88399 -0.27301
vn -0.00119 0.90207 -0.43159
vn -0.00135 0.83265 -0.55380
vn -0.37983 0.91423 -0.14112
vn -0.00038 0.98754 -0.15738
vn -0.13680 0.99060 -0.00020
vn -0.37969 0.92511 0.00014
vn 0.38211 0.05776 -0.92231
vn 0.38175 -0.00078 -0.92426
vn 0.38062 0.26260 -0.88666
vn 0.37228 0.43362 -0.82060
vn 0.37820 0.88427 -0.27392
vn 0.36663 0.77465 -0.51527
vn 0.37985 0.91421 -0.14120
vn 0.60228 0.79828 -0.00098
vn 0.99984 -0.01745 -0.00289
vn 0.99085 -0.00185 0.13498
vn 0.92326 -0.00171 -0.38418
vn 0.92260 0.04526 -0.38309
vn 0.99924 -0.03646 -0.01406
vn 0.92080 0.13360 -0.36644
vn 0.99624 0.02944 -0.08152
vn 0.92092 0.28363 -0.26731
vn 0.99791 0.06450 0.00292
vn 0.92054 0.36666 -0.13480
vn 0.91964 0.39072 -0.03986
vn 0.98969 -0.13608 0.04457
vn 0.99065 0.13642 -0.00117
vn 0.92523 -0.02665 0.37846
vn 0.92559 -0.00079 0.37854
vn 0.92449 -0.12129 0.36139
vn 0.92206 -0.26712 0.28009
vn 0.92248 -0.36425 0.12788
vn 0.92263 -0.37879 0.07263
vn 0.79709 -0.60386 -0.00073
vn 0.00171 -0.06236 0.99805
vn 0.00168 0.00046 1.00000
vn 0.38418 0.00030 0.92326
vn 0.38378 -0.11696 0.91599
vn 0.00225 -0.27591 0.96118
vn 0.38015 -0.34193 0.85940
vn 0.00216 -0.45293 0.89154
vn 0.37058 -0.43237 0.82203
vn 0.37446 -0.86596 0.33149
vn 0.00124 -0.96158 0.27453
vn 0.00137 -0.82619 0.56339
vn 0.36749 -0.76964 0.52212
vn 0.37339 -0.92108 0.11044
vn 0.00145 -0.99440 0.10566
vn 0.13652 -0.99064 0.00010
vn -0.38106 -0.00000 0.92455
vn -0.38015 -0.11793 0.91738
vn -0.37586 -0.34214 0.86120
vn -0.36716 -0.43035 0.82462
vn -0.37245 -0.86666 0.33193
vn -0.36495 -0.76999 0.52338
vn -0.37128 -0.92188 0.11084
vn -0.37872 -0.92551 0.00072
# 171 normals
usemtl _0___Default
f  1/1/1 2/2/2 3/3/3
f  1/1/1 3/3/3 4/4/4
f  5/5/5 6/6/6 7/7/7
f  5/5/5 7/7/7 8/8/8
f  9/9/9 10/10/10 11/11/11
f  9/9/9 11/11/11 12/12/12
f  13/13/13 14/14/14 15/15/15
f  13/13/13 15/15/15 16/16/16
f  12/12/12 11/11/11 1/1/1
f  12/12/12 1/1/1 4/4/4
f  8/8/8 7/7/7 13/13/13
f  8/8/8 13/13/13 16/16/16
f  17/17/17 18/18/17 19/19/17
f  19/19/18 18/18/18 20/20/18
f  21/21/19 22/22/19 23/23/19
f  23/23/20 22/22/20 24/24/20
f  25/25/21 26/26/21 27/27/21
f  27/27/22 26/26/22 28/28/22
f  29/29/23 30/30/23 31/31/23
f  31/31/24 30/30/24 32/32/24
f  33/33/25 34/34/25 35/35/25
f  35/35/25 34/34/25 36/36/25
f  37/37/26 38/38/26 39/39/26
f  39/39/27 38/38/27 40/40/27
f  41/1/28 42/2/29 43/3/30
f  41/1/28 43/3/30 44/4/31
f  45/5/32 46/6/33 47/7/34
f  45/5/32 47/7/34 48/8/35
f  49/9/9 50/10/10 51/11/36
f  49/9/9 51/11/36 52/12/37
f  53/13/38 54/14/39 55/15/40
f  53/13/38 55/15/40 56/16/41
f  52/12/37 51/11/36 41/1/28
f  52/12/37 41/1/28 44/4/31
f  48/8/35 47/7/34 53/13/38
f  48/8/35 53/13/38 56/16/41
f  57/41/42 58/42/42 59/43/42
f  59/43/43 58/42/43 60/44/43
f  61/45/19 62/46/19 63/47/19
f  63/47/44 62/46/44 64/48/44
f  65/49/45 66/50/45 67/51/45
f  67/51/22 66/50/22 68/52/22
f  69/53/46 70/54/46 71/55/46
f  71/55/47 70/54/47 72/56/47
f  73/57/25 74/58/25 75/59/25
f  75/59/25 74/58/25 76/60/25
f  77/61/48 78/62/48 79/63/48
f  79/63/49 78/62/49 80/64/49
f  81/1/50 82/2/2 83/3/3
f  81/1/50 83/3/3 84/4/51
f  85/5/52 86/6/53 87/7/54
f  85/5/52 87/7/54 88/8/55
f  89/9/56 90/10/57 91/11/58
f  89/9/56 91/11/58 92/12/59
f  93/13/60 94/14/61 95/15/62
f  93/13/60 95/15/62 96/16/63
f  92/12/59 91/11/58 81/1/50
f  92/12/59 81/1/50 84/4/51
f  88/8/55 87/7/54 93/13/60
f  88/8/55 93/13/60 96/16/63
f  97/65/17 98/66/17 99/67/17
f  99/67/18 98/66/18 100/68/18
f  101/69/64 102/70/64 103/71/64
f  103/71/65 102/70/65 104/72/65
f  105/73/66 106/74/66 107/75/66
f  107/75/67 106/74/67 108/76/67
f  109/77/68 110/78/68 111/79/68
f  111/79/69 110/78/69 112/80/69
f  113/81/25 114/82/25 115/83/25
f  115/83/70 114/82/70 116/84/70
f  117/85/71 118/86/71 119/87/71
f  119/87/72 118/86/72 120/88/72
usemtl _9___Default
f  121/89/73 122/90/74 123/91/75
f  121/89/73 123/91/75 124/92/76
f  121/89/73 124/92/76 125/93/77
f  121/89/73 125/93/77 126/94/78
f  121/89/73 126/94/78 127/95/79
f  121/89/73 127/95/79 128/96/80
f  129/97/81 128/96/80 130/98/81
f  121/89/73 131/99/82 122/90/74
f  132/100/83 133/101/84 134/102/85
f  132/100/83 134/102/85 135/103/86
f  135/103/86 134/102/85 136/104/87
f  135/103/86 136/104/87 137/105/88
f  137/105/88 136/104/87 138/106/89
f  137/105/88 138/106/89 139/107/90
f  138/106/89 140/108/91 141/109/92
f  138/106/89 141/109/92 139/107/90
f  140/108/91 142/110/93 143/111/94
f  140/108/91 143/111/94 141/109/92
f  144/112/95 131/99/95 145/113/95
f  144/112/96 145/113/96 146/114/96
f  147/115/97 132/100/83 135/103/86
f  147/115/97 135/103/86 148/116/98
f  148/116/98 135/103/86 137/105/88
f  148/116/98 137/105/88 149/117/99
f  149/117/99 137/105/88 139/107/90
f  149/117/99 139/107/90 150/118/100
f  150/118/100 139/107/90 141/109/92
f  150/118/100 141/109/92 151/119/101
f  141/109/92 143/111/94 152/120/102
f  141/109/92 152/120/102 151/119/101
f  146/114/103 145/113/103 153/121/103
f  146/114/104 153/121/104 154/122/104
f  155/123/105 156/124/106 157/125/107
f  155/123/105 157/125/107 158/126/108
f  158/126/108 157/125/107 159/127/109
f  158/126/108 159/127/109 160/128/110
f  160/128/110 159/127/109 161/129/111
f  160/128/110 161/129/111 162/130/112
f  163/131/113 164/132/114 165/133/115
f  163/131/113 165/133/115 166/134/116
f  164/132/114 167/135/117 168/136/118
f  164/132/114 168/136/118 165/133/115
f  169/137/119 170/138/120 127/95/79
f  169/137/119 127/95/79 126/94/78
f  171/139/121 172/140/122 155/123/105
f  171/139/121 155/123/105 158/126/108
f  173/141/123 171/139/121 158/126/108
f  173/141/123 158/126/108 160/128/110
f  174/142/124 173/141/123 160/128/110
f  174/142/124 160/128/110 162/130/112
f  165/133/115 175/143/125 176/144/126
f  165/133/115 176/144/126 166/134/116
f  168/136/118 177/145/127 175/143/125
f  168/136/118 175/143/125 165/133/115
f  126/94/78 125/93/77 178/146/128
f  126/94/78 178/146/128 169/137/119
f  179/147/129 180/148/130 181/149/131
f  179/147/129 181/149/131 182/150/132
f  183/151/133 179/147/129 182/150/132
f  183/151/133 182/150/132 184/152/134
f  185/153/135 183/151/133 184/152/134
f  185/153/135 184/152/134 186/154/136
f  187/155/137 185/153/135 186/154/136
f  187/155/137 186/154/136 188/156/138
f  189/157/139 190/158/140 187/155/137
f  189/157/139 187/155/137 188/156/138
f  125/93/77 124/92/76 191/159/141
f  125/93/77 191/159/141 178/146/128
f  192/160/142 193/161/143 180/148/130
f  192/160/142 180/148/130 179/147/129
f  194/162/144 192/160/142 179/147/129
f  194/162/144 179/147/129 183/151/133
f  195/163/145 194/162/144 183/151/133
f  195/163/145 183/151/133 185/153/135
f  187/155/137 196/164/146 195/163/145
f  187/155/137 195/163/145 185/153/135
f  190/158/140 197/165/147 196/164/146
f  190/158/140 196/164/146 187/155/137
f  124/92/76 123/91/75 198/166/148
f  124/92/76 198/166/148 191/159/141
f  199/167/149 200/168/150 201/169/151
f  199/167/149 201/169/151 202/170/152
f  203/171/153 199/167/149 202/170/152
f  203/171/153 202/170/152 204/172/154
f  205/173/155 203/171/153 204/172/154
f  205/173/155 204/172/154 206/174/156
f  207/175/157 208/176/158 209/177/159
f  207/175/160 209/177/160 210/178/160
f  211/179/161 212/180/162 208/176/158
f  211/179/161 208/176/158 207/175/157
f  213/181/163 198/166/148 123/91/75
f  213/181/163 123/91/75 122/90/74
f  214/182/164 200/168/150 199/167/149
f  214/182/164 199/167/149 215/183/165
f  215/183/165 199/167/149 203/171/153
f  215/183/165 203/171/153 216/184/166
f  216/184/166 203/171/153 205/173/155
f  216/184/166 205/173/155 217/185/167
f  209/177/159 208/176/158 218/186/168
f  209/177/169 218/186/169 219/187/169
f  208/176/158 212/180/162 220/188/170
f  208/176/158 220/188/170 218/186/168
f  213/181/163 122/90/74 131/99/82
f  213/181/171 131/99/171 144/112/171
