# 
# Wavefront OBJ file
# Converted by the DEEP Exploration Deep Exploration 5 5.0.3.1555 Release
# Right Hemisphere, LTD
# http://www.righthemisphere.com/
# 
mtllib zaun_blech_kurz.mtl
# object Object072
g Object072
v 0.28864 7.23987 1.81480
v 0.26037 7.15657 -1.81394
v 0.26037 7.52482 -1.81393
v 0.28865 7.55494 1.81481
v -0.03077 7.55494 1.81464
v 0.00120 7.52482 -1.81407
v 0.00120 7.25797 -1.81408
v -0.03078 7.23987 1.81462
v 0.00120 7.25797 -1.81408
v 0.26037 7.15657 -1.81394
v -0.03078 7.23987 1.81462
v 0.28864 7.23987 1.81480
v 0.28865 7.55494 1.81481
v -0.03077 7.55494 1.81464
v 0.28864 7.23987 1.81480
v -0.03078 7.23987 1.81462
v 0.26037 7.52482 -1.81393
v 0.00120 7.52482 -1.81407
v 0.28865 7.55494 1.81481
v -0.03077 7.55494 1.81464
v 0.02186 -0.04231 -1.81443
v 0.27876 -0.04484 -1.81429
v -0.01061 -0.07278 1.81428
v 0.30477 -0.07253 1.81445
v 0.27926 0.21923 -1.81427
v 0.02161 0.21671 -1.81441
v 0.30452 0.24683 1.81447
v -0.01061 0.24657 1.81430
v 0.02161 0.21671 -1.81441
v 0.02186 -0.04231 -1.81443
v -0.01061 0.24657 1.81430
v -0.01061 -0.07278 1.81428
v 0.30477 -0.07253 1.81445
v 0.30452 0.24683 1.81447
v -0.01061 -0.07278 1.81428
v -0.01061 0.24657 1.81430
v 0.27876 -0.04484 -1.81429
v 0.27926 0.21923 -1.81427
v 0.30477 -0.07253 1.81445
v 0.30452 0.24683 1.81447
v 0.30477 -7.28673 1.81410
v 0.28859 -7.31660 -1.81464
v 0.02185 -7.31660 -1.81478
v -0.01062 -7.28673 1.81393
v -0.01062 -7.60609 1.81391
v 0.02186 -7.57562 -1.81479
v 0.28859 -7.57562 -1.81465
v 0.30477 -7.60609 1.81409
v 0.28859 -7.57562 -1.81465
v 0.28859 -7.31660 -1.81464
v 0.30477 -7.60609 1.81409
v 0.30477 -7.28673 1.81410
v -0.01062 -7.28673 1.81393
v -0.01062 -7.60609 1.81391
v 0.30477 -7.28673 1.81410
v 0.30477 -7.60609 1.81409
v 0.02185 -7.31660 -1.81478
v 0.02186 -7.57562 -1.81479
v -0.01062 -7.28673 1.81393
v -0.01062 -7.60609 1.81391
v -0.00906 7.60608 -1.04069
v -0.00907 -7.59509 -1.04143
v -0.00894 7.60609 -1.24972
v -0.00896 -7.59508 -1.25046
v -0.01218 7.60522 1.01213
v -0.01220 -7.59520 1.01139
v -0.01206 7.60523 0.78749
v -0.01208 -7.59518 0.78676
v -0.11076 0.18497 1.46197
v -0.30476 -3.65274 1.41707
v -0.23695 -3.64165 1.41711
v -0.04295 0.20738 1.46201
v -0.04296 7.38538 1.49254
v -0.11077 7.38533 1.49251
v -0.11078 -7.49068 1.49177
v -0.04297 -7.49068 1.49180
v -0.11078 -7.49068 1.49177
v -0.10905 -7.49053 -1.69979
v -0.04297 -7.49068 1.49180
v -0.04124 -7.49053 -1.69976
v -0.30476 -3.65274 1.41707
v -0.10905 -7.49053 -1.69979
v -0.11078 -7.49068 1.49177
v -0.11076 0.18497 1.46197
v -0.10904 7.38548 -1.69905
v -0.11077 7.38533 1.49251
v -0.04296 7.38538 1.49254
v -0.04122 7.38556 -1.69902
v -0.11077 7.38533 1.49251
v -0.10904 7.38548 -1.69905
v -0.04122 7.38556 -1.69902
v -0.04296 7.38538 1.49254
v -0.04295 0.20738 1.46201
v -0.23695 -3.64165 1.41711
v -0.04124 -7.49053 -1.69976
v -0.04297 -7.49068 1.49180
# 96 verticies
vt 0.02455 2.40556
vt 0.97630 2.38371
vt 0.97630 2.48030
vt 0.02455 2.48819
vt 0.97541 2.48819
vt 0.02366 2.48030
vt 0.02366 2.41031
vt 0.97540 2.40556
vt 0.97634 -0.52138
vt 0.97630 -0.45341
vt 0.02460 -0.52977
vt 0.02455 -0.44599
vt -0.44599 2.48819
vt -0.52977 2.48819
vt -0.44599 2.40556
vt -0.52977 2.40556
vt 0.02370 -0.45341
vt 0.02366 -0.52138
vt 0.97545 -0.44599
vt 0.97541 -0.52977
vt 0.97643 -0.51596
vt 0.97639 -0.44859
vt 0.02469 -0.52448
vt 0.02464 -0.44176
vt 0.02361 -0.44845
vt 0.02357 -0.51603
vt 0.97536 -0.44183
vt 0.97531 -0.52448
vt 0.02357 0.56351
vt 0.02357 0.49558
vt 0.97531 0.57135
vt 0.97531 0.48759
vt -0.44176 0.48765
vt -0.44183 0.57141
vt -0.52448 0.48759
vt -0.52448 0.57135
vt 0.97639 0.49492
vt 0.97639 0.56418
vt 0.02464 0.48765
vt 0.02464 0.57141
vt 0.97526 -0.44177
vt 0.02351 -0.44601
vt 0.02348 -0.51597
vt 0.97522 -0.52449
vt 0.02479 -0.52449
vt 0.97653 -0.51597
vt 0.97649 -0.44601
vt 0.02474 -0.44176
vt 0.97649 -1.48027
vt 0.97649 -1.41233
vt 0.02474 -1.48826
vt 0.02474 -1.40450
vt -0.52449 -1.40450
vt -0.52449 -1.48826
vt -0.44177 -1.40450
vt -0.44176 -1.48826
vt 0.02348 -1.41233
vt 0.02347 -1.48027
vt 0.97522 -1.40450
vt 0.97522 -1.48826
vt 2.49350 0.27249
vt -1.49348 0.27230
vt 2.49351 0.21767
vt -1.49348 0.21748
vt 2.49328 1.10091
vt -1.49351 1.10072
vt 2.49328 1.04199
vt -1.49350 1.04180
vt 0.43615 -1.48669
vt 1.46804 -1.53757
vt 1.46506 -1.51979
vt 0.43013 -1.46890
vt -1.49991 -1.46890
vt -1.49990 -1.48669
vt 2.50000 -1.48670
vt 2.50000 -1.46891
vt -1.48670 0.94345
vt -1.48624 0.05402
vt -1.46891 0.94346
vt -1.46845 0.05403
vt 1.46804 0.92263
vt 2.49996 0.05402
vt 2.50000 0.94345
vt 0.43615 0.93514
vt -1.49994 0.05422
vt -1.49990 0.94366
vt 2.46890 0.94367
vt 2.46845 0.05423
vt 2.48669 0.94366
vt 2.48624 0.05422
vt 2.49996 0.05423
vt 2.49991 0.94367
vt 0.56987 0.93515
vt -0.46506 0.92264
vt -1.49996 0.05403
vt -1.50000 0.94346
# 96 texture verticies
vn 0.99997 -0.00001 -0.00779
vn 0.99997 0.00000 -0.00779
vn 0.99997 -0.00003 -0.00779
vn -0.99996 0.00001 -0.00881
vn -0.99996 -0.00001 -0.00881
vn -0.99996 0.00002 -0.00881
vn -0.36436 -0.93122 -0.00786
vn -0.00001 -0.99974 0.02295
vn -0.00054 -0.00005 1.00000
vn -0.00054 -0.00005 1.00000
vn -0.00054 -0.00005 1.00000
vn 0.00000 0.99997 -0.00830
vn 0.00000 0.99997 -0.00830
vn -0.00982 -0.99992 -0.00848
vn -0.00451 -0.99996 -0.00806
vn 0.00081 -0.99997 -0.00764
vn -0.00979 0.99992 -0.00754
vn -0.00530 0.99995 -0.00789
vn -0.00080 0.99997 -0.00824
vn -0.99996 -0.00097 -0.00887
vn -0.99996 0.00000 -0.00895
vn -0.00054 -0.00005 1.00000
vn -0.00054 -0.00005 1.00000
vn 0.99997 -0.00191 -0.00718
vn 0.99998 0.00077 -0.00697
vn 0.00000 0.99997 -0.00823
vn 0.00000 0.99997 -0.00823
vn 0.00000 0.99997 -0.00823
vn 0.00000 -0.99996 -0.00840
vn -0.00000 -0.99996 -0.00840
vn 0.00000 -0.99996 -0.00840
vn 0.99999 0.00000 -0.00446
vn 0.99999 0.00001 -0.00446
vn -0.00055 -0.00005 1.00000
vn -0.99996 -0.00000 -0.00895
vn -0.99996 -0.00001 -0.00895
vn 1.00000 -0.00000 0.00054
vn 1.00000 -0.00000 0.00055
vn 1.00000 -0.00000 0.00055
vn 1.00000 -0.00000 0.00054
vn 1.00000 -0.00000 0.00054
vn 1.00000 -0.00000 0.00054
vn 0.00126 -0.00802 0.99997
vn -0.00095 0.00896 0.99996
vn 0.00035 -0.00146 1.00000
vn 0.00210 -0.00804 0.99997
vn 0.00016 -0.00425 0.99999
vn -0.00052 -0.00424 0.99999
vn -0.00054 0.01943 0.99981
vn -0.00211 0.01932 0.99981
vn 0.00000 -1.00000 -0.00005
vn -0.00001 -1.00000 -0.00005
vn -0.00002 -1.00000 -0.00005
vn -0.99872 -0.05049 -0.00054
vn -0.99073 0.05155 -0.12569
vn -1.00000 0.00000 -0.00054
vn -1.00000 0.00000 -0.00054
vn -1.00000 0.00000 -0.00054
vn -0.00070 1.00000 0.00006
vn -0.00095 1.00000 0.00005
vn -0.00120 1.00000 0.00005
vn 1.00000 -0.00000 0.00054
vn 1.00000 -0.00000 0.00054
vn 0.99074 -0.05140 0.12568
vn 1.00000 -0.00000 0.00054
vn 0.99873 0.05034 0.00055
# 66 normals
usemtl _3___Default
f  1/1/1 2/2/2 3/3/1
f  1/1/1 3/3/1 4/4/3
f  5/5/4 6/6/5 7/7/4
f  5/5/4 7/7/4 8/8/6
f  9/9/7 10/10/7 11/11/7
f  11/11/8 10/10/8 12/12/8
f  13/13/9 14/14/10 15/15/10
f  15/15/10 14/14/10 16/16/11
f  17/17/12 18/18/12 19/19/12
f  19/19/13 18/18/13 20/20/13
f  21/21/14 22/22/15 23/23/15
f  23/23/15 22/22/15 24/24/16
f  25/25/17 26/26/18 27/27/18
f  27/27/18 26/26/18 28/28/19
f  29/29/20 30/30/20 31/31/20
f  31/31/21 30/30/21 32/32/21
f  33/33/22 34/34/22 35/35/22
f  35/35/23 34/34/23 36/36/23
f  37/37/24 38/38/24 39/39/24
f  39/39/25 38/38/25 40/40/25
f  41/41/26 42/42/27 43/43/26
f  41/41/26 43/43/26 44/44/28
f  45/45/29 46/46/30 47/47/29
f  45/45/29 47/47/29 48/48/31
f  49/49/32 50/50/32 51/51/32
f  51/51/33 50/50/33 52/52/33
f  53/53/34 54/54/34 55/55/34
f  55/55/34 54/54/34 56/56/34
f  57/57/35 58/58/35 59/59/35
f  59/59/36 58/58/36 60/60/36
usemtl _4___Default
f  61/61/37 62/62/38 63/63/38
f  63/63/38 62/62/38 64/64/39
f  65/65/40 66/66/41 67/67/41
f  67/67/41 66/66/41 68/68/42
usemtl _2___Default
f  69/69/43 70/70/44 71/71/45
f  69/69/43 71/71/45 72/72/46
f  73/73/47 69/69/43 72/72/46
f  73/73/47 74/74/48 69/69/43
f  70/70/44 75/75/49 76/76/50
f  70/70/44 76/76/50 71/71/45
f  77/77/51 78/78/52 79/79/52
f  79/79/52 78/78/52 80/80/53
f  81/81/54 82/82/54 83/83/54
f  82/82/55 81/81/55 84/84/55
f  82/82/56 84/84/57 85/85/57
f  84/84/57 86/86/58 85/85/57
f  87/87/59 88/88/60 89/89/60
f  89/89/60 88/88/60 90/90/61
f  91/91/62 92/92/63 93/93/62
f  94/94/64 95/95/64 93/93/64
f  93/93/62 95/95/65 91/91/62
f  95/95/66 94/94/66 96/96/66
