# 
# Wavefront OBJ file
# Converted by the DEEP Exploration Deep Exploration 5 5.0.3.1555 Release
# Right Hemisphere, LTD
# http://www.righthemisphere.com/
# 
mtllib zaun_blech_lang.mtl
# object Object011
g Object011
v 0.00848 -13.86095 -1.70490
v 0.00863 -14.07427 1.49492
v 0.00863 -15.19389 1.48596
v 0.00848 -15.19215 -1.70562
v 0.00864 -7.30224 1.46008
v 0.00848 -10.05984 -1.70283
v 0.00849 0.05826 -1.69732
v 0.00864 -2.78284 1.51326
v 0.00864 0.05653 1.49427
v -0.05938 -2.76655 1.51327
v -0.05954 0.05826 -1.69732
v -0.05939 -7.32506 1.46007
v -0.05938 0.05653 1.49427
v -0.05955 -15.19215 -1.70562
v -0.05939 -14.07427 1.49494
v -0.05954 -13.86095 -1.70489
v 0.00863 -15.19389 1.48596
v -0.05955 -15.19215 -1.70562
v 0.00848 -15.19215 -1.70562
v -0.05939 -15.19388 1.48597
v 0.00864 0.05653 1.49427
v -0.05938 -2.76655 1.51327
v 0.00864 -2.78284 1.51326
v -0.05938 0.05653 1.49427
v 0.00864 -7.30224 1.46008
v -0.05939 -7.32506 1.46007
v 0.14764 -10.08441 1.50281
v 0.07961 -10.08440 1.50260
v 0.00865 4.00210 1.52582
v 0.00865 7.94818 1.46838
v 0.00850 15.30915 -1.68902
v 0.00865 12.46757 1.52157
v 0.00865 15.30742 1.50257
v -0.05937 15.30742 1.50257
v 0.00850 15.30915 -1.68902
v -0.05953 15.30915 -1.68901
v 0.00865 15.30742 1.50257
v -0.05937 12.48388 1.52158
v -0.05953 15.30915 -1.68901
v -0.05938 7.92535 1.46837
v -0.05937 15.30742 1.50257
v -0.05938 3.99092 1.52581
v -0.05938 3.99092 1.52581
v 0.00865 4.00210 1.52582
v 0.00865 15.30742 1.50257
v -0.05937 12.48388 1.52158
v 0.00865 12.46757 1.52157
v -0.05937 15.30742 1.50257
v 0.00865 7.94818 1.46838
v -0.05938 7.92535 1.46837
v 0.14764 -10.08441 1.50281
v -0.05954 -10.05984 -1.70282
v 0.07961 -10.08440 1.50260
v -0.32698 -13.53738 1.50606
v -0.22541 -13.19176 -1.70436
v -0.35642 -13.55190 1.50612
v -0.05939 -14.07427 1.49494
v 0.00863 -14.07427 1.49492
v -0.32698 -13.53738 1.50606
v -0.35642 -13.55190 1.50612
v -0.29344 -13.19176 -1.70436
v -0.05939 -15.19388 1.48597
v 0.00863 -15.19389 1.48596
v -0.05939 -15.19388 1.48597
v 0.00848 -10.05984 -1.70283
v 0.14764 -10.08441 1.50281
v 0.07961 -10.08440 1.50260
v -0.05954 -10.05984 -1.70282
v -0.32698 -13.53738 1.50606
v -0.22541 -13.19176 -1.70436
v -0.29344 -13.19176 -1.70436
v -0.35642 -13.55190 1.50612
v 0.04112 -14.99008 1.80823
v 0.07130 -15.27689 -1.82062
v 0.04112 -15.30915 1.80806
v 0.07130 -15.01793 -1.82048
v 0.35635 -14.99010 1.80822
v 0.04112 -15.30915 1.80806
v 0.35635 -15.30915 1.80804
v 0.04112 -14.99008 1.80823
v 0.35635 -15.30915 1.80804
v 0.33817 -15.01793 -1.82050
v 0.35635 -14.99010 1.80822
v 0.33817 -15.27691 -1.82064
v 0.04112 -15.30915 1.80806
v 0.33817 -15.27691 -1.82064
v 0.35635 -15.30915 1.80804
v 0.07130 -15.27689 -1.82062
v 0.35635 -14.99010 1.80822
v 0.07130 -15.01793 -1.82048
v 0.04112 -14.99008 1.80823
v 0.33817 -15.01793 -1.82050
v 0.35641 -7.67133 1.81220
v 0.32877 -7.37778 -1.81639
v 0.35629 -7.35228 1.81232
v 0.32837 -7.64188 -1.81654
v 0.04119 -7.67134 1.81216
v 0.35629 -7.35228 1.81232
v 0.04106 -7.35227 1.81233
v 0.35641 -7.67133 1.81220
v 0.04106 -7.35227 1.81233
v 0.07135 -7.63955 -1.81652
v 0.04119 -7.67134 1.81216
v 0.07125 -7.38012 -1.81638
v 0.35629 -7.35228 1.81232
v 0.07125 -7.38012 -1.81638
v 0.04106 -7.35227 1.81233
v 0.32877 -7.37778 -1.81639
v 0.04119 -7.67134 1.81216
v 0.32837 -7.64188 -1.81654
v 0.35641 -7.67133 1.81220
v 0.07135 -7.63955 -1.81652
v 0.04113 0.36470 1.81654
v 0.07131 0.07742 -1.81232
v 0.04114 0.04564 1.81636
v 0.07131 0.33686 -1.81218
v 0.35636 0.36470 1.81652
v 0.04114 0.04564 1.81636
v 0.35636 0.04563 1.81634
v 0.04113 0.36470 1.81654
v 0.35636 0.04563 1.81634
v 0.33818 0.33685 -1.81220
v 0.35636 0.36470 1.81652
v 0.33818 0.07742 -1.81234
v 0.04114 0.04564 1.81636
v 0.33818 0.07742 -1.81234
v 0.35636 0.04563 1.81634
v 0.07131 0.07742 -1.81232
v 0.35636 0.36470 1.81652
v 0.07131 0.33686 -1.81218
v 0.04113 0.36470 1.81654
v 0.33818 0.33685 -1.81220
v 0.35642 7.57910 1.82050
v 0.32878 7.87264 -1.80809
v 0.35630 7.89815 1.82062
v 0.32838 7.60854 -1.80824
v 0.04120 7.57863 1.82046
v 0.35630 7.89815 1.82062
v 0.04107 7.89815 1.82064
v 0.35642 7.57910 1.82050
v 0.04107 7.89815 1.82064
v 0.07136 7.61087 -1.80822
v 0.04120 7.57863 1.82046
v 0.07126 7.86984 -1.80808
v 0.35630 7.89815 1.82062
v 0.07126 7.86984 -1.80808
v 0.04107 7.89815 1.82064
v 0.32878 7.87264 -1.80809
v 0.04120 7.57863 1.82046
v 0.32838 7.60854 -1.80824
v 0.35642 7.57910 1.82050
v 0.07136 7.61087 -1.80822
v 0.03891 0.05691 0.78920
v 0.15655 -10.01586 1.00779
v 0.15654 -10.00668 0.78315
v 0.03892 0.05679 1.01385
v 0.04102 0.05803 -1.24808
v 0.04103 -9.67123 -1.04500
v 0.04102 -9.66269 -1.25409
v 0.04103 0.05791 -1.03899
v 0.03892 15.30733 0.79750
v 0.03893 15.30721 1.02215
v 0.04103 15.30844 -1.23978
v 0.04104 15.30833 -1.03069
v 0.03890 -15.19351 0.78090
v 0.03891 -14.11506 0.78280
v 0.03892 -14.11556 1.00745
v 0.03891 -15.19364 1.00555
v 0.04102 -15.19240 -1.25638
v 0.04102 -14.11740 -1.25448
v 0.04103 -14.11787 -1.04539
v 0.04102 -15.19251 -1.04729
# 172 verticies
vt -3.15058 0.05288
vt -3.20653 0.93877
vt -3.50019 0.93629
vt -3.49973 0.05268
vt -1.43036 0.92912
vt -2.15362 0.05345
vt 0.50017 0.05497
vt -0.24500 0.94385
vt 0.49971 0.93859
vt 1.24073 0.94385
vt 0.49983 0.05498
vt 2.43634 0.92912
vt 0.50029 0.93859
vt 4.49973 0.05268
vt 4.20653 0.93878
vt 4.15058 0.05288
vt 0.49965 0.93629
vt 0.48177 0.05268
vt 0.49961 0.05268
vt 0.48181 0.93629
vt 0.49965 0.49971
vt 0.48181 -0.24073
vt 0.49965 -0.24500
vt 0.48181 0.49971
vt 0.49965 -1.43036
vt 0.48181 -1.43634
vt 0.53611 -2.16007
vt 0.51827 -2.16006
vt 1.53456 0.94732
vt 2.56954 0.93142
vt 4.50019 0.05727
vt 3.75489 0.94615
vt 4.49973 0.94089
vt 0.51818 0.94089
vt 0.50038 0.05727
vt 0.51823 0.05728
vt 0.50034 0.94089
vt -2.75917 0.94615
vt -3.50019 0.05728
vt -1.56356 0.93142
vt -3.49973 0.94089
vt -0.53163 0.94732
vt 0.48181 1.53163
vt 0.49966 1.53456
vt 0.49966 4.49973
vt 0.48182 3.75917
vt 0.49966 3.75489
vt 0.48182 4.49973
vt 0.49966 2.56954
vt 0.48181 2.56356
vt -2.16007 0.94095
vt 3.15362 0.05345
vt 3.16006 0.94089
vt -3.06572 0.94185
vt -2.97507 0.05302
vt 0.46389 -3.06953
vt 0.48181 -3.20653
vt 0.49965 -3.20653
vt 0.47161 -3.06572
vt 4.06953 0.94187
vt 3.97507 0.05303
vt 4.50019 0.93629
vt 0.49965 -3.50019
vt 0.48181 -3.50019
vt 0.49961 0.05345
vt 0.53611 0.94095
vt 0.51827 0.94089
vt 0.48177 0.05345
vt 0.52839 0.94185
vt 0.49854 0.05302
vt 0.51638 0.05303
vt 0.53611 0.94187
vt 0.97427 -2.44605
vt 0.02248 -2.52127
vt 0.97422 -2.52973
vt 0.02252 -2.45335
vt -2.44605 0.45866
vt -2.52973 0.54134
vt -2.52974 0.45866
vt -2.44605 0.54134
vt 0.02578 -2.52974
vt 0.97748 -2.45335
vt 0.02574 -2.44605
vt 0.97752 -2.52128
vt 0.97422 0.54134
vt 0.02248 0.46343
vt 0.97422 0.45866
vt 0.02248 0.53343
vt 0.02574 0.45866
vt 0.97748 0.53343
vt 0.02573 0.54134
vt 0.97748 0.46343
vt 0.02469 -0.55385
vt 0.97641 -0.47686
vt 0.02466 -0.47017
vt 0.97644 -0.54613
vt -0.55385 0.54132
vt -0.47017 0.45868
vt -0.47017 0.54136
vt -0.55385 0.45865
vt 0.97534 -0.47017
vt 0.02356 -0.54551
vt 0.97530 -0.55385
vt 0.02360 -0.47747
vt 0.02466 0.45868
vt 0.97640 0.53344
vt 0.02466 0.54136
vt 0.97641 0.46590
vt 0.97530 0.54132
vt 0.02356 0.46600
vt 0.97531 0.45865
vt 0.02356 0.53341
vt 0.97644 1.55385
vt 0.02466 1.47850
vt 0.97640 1.47017
vt 0.02470 1.54655
vt 1.55385 0.45866
vt 1.47017 0.54134
vt 1.47017 0.45866
vt 1.55385 0.54134
vt 0.02361 1.47017
vt 0.97531 1.54655
vt 0.02356 1.55385
vt 0.97534 1.47850
vt 0.97640 0.54134
vt 0.02466 0.46343
vt 0.97639 0.45866
vt 0.02466 0.53342
vt 0.02356 0.45866
vt 0.97530 0.53342
vt 0.02356 0.54134
vt 0.97531 0.46343
vt 0.02252 3.44605
vt 0.97423 3.52304
vt 0.02248 3.52973
vt 0.97427 3.45377
vt 3.44593 0.54132
vt 3.52973 0.45868
vt 3.52974 0.54135
vt 3.44605 0.45864
vt 0.97752 3.52974
vt 0.02574 3.45439
vt 0.97747 3.44593
vt 0.02577 3.52231
vt 0.02248 0.45868
vt 0.97423 0.53344
vt 0.02248 0.54135
vt 0.97423 0.46589
vt 0.97747 0.54132
vt 0.02573 0.46600
vt 0.97748 0.45864
vt 0.02574 0.53341
vt 0.49987 1.21398
vt -2.14203 1.27131
vt -2.13962 1.21240
vt 0.49984 1.27290
vt 0.50016 -0.00036
vt -2.05164 0.05291
vt -2.04940 -0.00193
vt 0.50013 0.05448
vt 4.49977 1.21616
vt 4.49974 1.27508
vt 4.50006 0.00182
vt 4.50003 0.05666
vt -3.50003 1.21180
vt -3.21717 1.21230
vt -3.21730 1.27122
vt -3.50006 1.27073
vt -3.49974 -0.00254
vt -3.21779 -0.00204
vt -3.21791 0.05280
vt -3.49977 0.05230
# 172 texture verticies
vn 1.00000 -0.00000 -0.00005
vn 1.00000 0.00000 -0.00005
vn 1.00000 -0.00000 -0.00005
vn 0.99976 0.01641 -0.01435
vn 0.99947 0.02461 -0.02151
vn 1.00000 -0.00000 -0.00005
vn 1.00000 -0.00000 -0.00005
vn 1.00000 -0.00000 -0.00005
vn -1.00000 0.00000 0.00005
vn -1.00000 0.00000 0.00005
vn -0.99976 -0.01654 0.01435
vn -1.00000 0.00000 0.00005
vn -1.00000 0.00000 0.00005
vn -0.98547 -0.16950 -0.01125
vn -0.95931 -0.28076 -0.03011
vn -0.00000 -1.00000 -0.00054
vn -0.00014 -1.00000 -0.00054
vn 0.00175 0.00669 0.99998
vn 0.00006 0.00673 0.99998
vn 0.00376 -0.01167 0.99992
vn -0.00267 -0.01177 0.99993
vn -0.00421 0.01517 0.99988
vn -0.00522 0.01510 0.99987
vn -0.00321 0.01525 0.99988
vn 1.00000 -0.00000 -0.00005
vn 1.00000 -0.00000 -0.00005
vn 1.00000 -0.00000 -0.00005
vn 1.00000 -0.00000 -0.00005
vn 1.00000 -0.00000 -0.00005
vn -0.00001 1.00000 0.00054
vn -0.00002 1.00000 0.00054
vn 0.00000 1.00000 0.00054
vn -1.00000 0.00000 0.00005
vn -1.00000 0.00000 0.00005
vn -1.00000 0.00000 0.00005
vn -1.00000 0.00000 0.00005
vn -1.00000 0.00000 0.00005
vn 0.00126 -0.00800 0.99997
vn 0.00006 -0.00802 0.99997
vn 0.00179 0.00669 0.99998
vn 0.00005 0.00673 0.99998
vn 0.00379 -0.01167 0.99992
vn -0.00263 -0.01177 0.99993
vn -0.00501 0.01455 0.99988
vn -0.00245 0.01460 0.99989
vn 0.99787 0.04919 -0.04294
vn -0.99946 -0.02482 0.02151
vn -0.99785 -0.04960 0.04294
vn 0.90050 0.43190 0.05056
vn 0.94200 0.32920 0.06524
vn 0.00486 -0.01805 0.99983
vn 0.00041 -0.02116 0.99978
vn 0.00930 -0.01494 0.99985
vn 0.84776 0.52921 0.03524
vn -0.90958 -0.41315 -0.04433
vn -0.94256 -0.32940 -0.05544
vn -1.00000 0.00000 0.00005
vn 0.00041 -0.00800 0.99997
vn 0.00006 -0.00802 0.99997
vn -0.00015 -0.99997 -0.00766
vn -0.00004 -0.99997 -0.00766
vn 0.00002 0.99426 0.10704
vn -0.44030 0.89317 0.09155
vn -0.99997 0.00000 -0.00832
vn -0.99997 0.00000 -0.00832
vn -0.99997 0.00000 -0.00832
vn 0.00005 -0.00055 1.00000
vn 0.00005 -0.00055 1.00000
vn 0.00005 -0.00055 1.00000
vn 0.99999 0.00000 -0.00501
vn 0.99999 0.00000 -0.00501
vn 0.99999 0.00000 -0.00501
vn -0.00001 -0.99996 -0.00889
vn -0.00006 -0.99996 -0.00889
vn 0.00004 0.99997 -0.00767
vn 0.00002 0.99997 -0.00767
vn 0.99997 -0.00057 -0.00766
vn 0.99997 0.00039 -0.00759
vn 0.99997 -0.00153 -0.00774
vn -0.00004 -0.00045 1.00000
vn 0.00005 -0.00054 1.00000
vn -0.00013 -0.00037 1.00000
vn -0.99997 -0.00038 -0.00832
vn -0.99997 -0.00038 -0.00831
vn -0.99997 -0.00037 -0.00832
vn 0.00001 0.99997 -0.00767
vn -0.00908 0.99993 -0.00696
vn 0.00003 -0.99997 -0.00812
vn -0.00908 -0.99992 -0.00884
vn -0.99997 0.00000 -0.00832
vn -0.99997 0.00000 -0.00832
vn -0.99997 0.00000 -0.00832
vn 0.00005 -0.00055 1.00000
vn 0.00005 -0.00055 1.00000
vn 0.00005 -0.00055 1.00000
vn 0.99999 0.00000 -0.00501
vn 0.99999 0.00000 -0.00501
vn 0.99999 0.00000 -0.00501
vn -0.00001 -0.99996 -0.00876
vn -0.00001 -0.99996 -0.00876
vn 0.00001 0.99997 -0.00767
vn 0.00001 0.99997 -0.00767
vn 0.99997 -0.00056 -0.00766
vn 0.99997 0.00039 -0.00759
vn 0.99997 -0.00152 -0.00774
vn -0.00004 -0.00046 1.00000
vn 0.00005 -0.00054 1.00000
vn -0.00013 -0.00037 1.00000
vn -0.99997 -0.00038 -0.00832
vn -0.99997 -0.00039 -0.00831
vn -0.99997 -0.00037 -0.00832
vn 0.00001 0.99997 -0.00780
vn -0.01087 0.99992 -0.00695
vn 0.00149 -0.99997 -0.00812
vn -0.00909 -0.99992 -0.00896
vn 0.99997 0.00779 0.00011
vn 0.99993 0.01168 0.00019
vn 0.99993 0.01169 0.00043
vn 0.99999 0.00389 -0.00005
vn 1.00000 -0.00000 -0.00005
vn 1.00000 -0.00000 -0.00005
vn 1.00000 -0.00000 -0.00005
vn 1.00000 -0.00000 -0.00005
vn 1.00000 -0.00000 -0.00005
vn 1.00000 -0.00000 -0.00005
vn 1.00000 -0.00000 -0.00005
vn 1.00000 -0.00000 -0.00005
vn 1.00000 -0.00000 -0.00005
vn 1.00000 -0.00000 -0.00004
vn 1.00000 -0.00000 -0.00005
vn 1.00000 -0.00000 -0.00005
vn 1.00000 -0.00000 -0.00005
vn 1.00000 -0.00000 -0.00004
# 133 normals
usemtl _2___Default
f  1/1/1 2/2/2 3/3/1
f  3/3/1 4/4/3 1/1/1
f  5/5/4 6/6/5 7/7/6
f  7/7/6 8/8/7 5/5/4
f  7/7/6 9/9/8 8/8/7
f  10/10/9 11/11/10 12/12/11
f  10/10/9 13/13/12 11/11/10
f  14/14/13 15/15/14 16/16/15
f  17/17/16 18/18/16 19/19/16
f  20/20/17 18/18/17 17/17/17
f  21/21/18 22/22/18 23/23/18
f  21/21/19 24/24/19 22/22/19
f  25/25/20 22/22/20 26/26/20
f  23/23/21 22/22/21 25/25/21
f  26/26/22 27/27/22 25/25/23
f  26/26/22 28/28/24 27/27/22
f  7/7/6 29/29/25 9/9/8
f  30/30/26 7/7/6 31/31/27
f  29/29/25 7/7/6 30/30/26
f  31/31/27 32/32/28 30/30/26
f  31/31/27 33/33/29 32/32/28
f  34/34/30 35/35/30 36/36/31
f  37/37/32 35/35/30 34/34/30
f  38/38/33 39/39/34 40/40/35
f  38/38/33 41/41/36 39/39/34
f  11/11/10 40/40/35 39/39/34
f  11/11/10 42/42/37 40/40/35
f  42/42/37 11/11/10 13/13/12
f  43/43/38 21/21/38 44/44/38
f  43/43/39 24/24/39 21/21/39
f  45/45/40 46/46/40 47/47/40
f  45/45/41 48/48/41 46/46/41
f  49/49/42 46/46/42 50/50/42
f  47/47/43 46/46/43 49/49/43
f  50/50/44 44/44/44 49/49/44
f  50/50/45 43/43/45 44/44/45
f  6/6/5 5/5/4 51/51/46
f  52/52/47 12/12/11 11/11/10
f  53/53/48 12/12/11 52/52/47
f  54/54/49 1/1/49 55/55/50
f  56/56/51 57/57/52 58/58/51
f  58/58/51 59/59/53 56/56/51
f  1/1/49 54/54/49 2/2/54
f  16/16/15 15/15/14 60/60/55
f  60/60/55 61/61/56 16/16/15
f  15/15/14 14/14/13 62/62/57
f  57/57/58 63/63/58 58/58/58
f  57/57/59 64/64/59 63/63/59
f  65/65/60 66/66/60 67/67/60
f  67/67/61 68/68/61 65/65/61
f  69/69/62 70/70/62 71/71/62
f  71/71/63 72/72/63 69/69/63
usemtl _3___Default
f  73/73/64 74/74/64 75/75/65
f  76/76/66 74/74/64 73/73/64
f  77/77/67 78/78/67 79/79/68
f  80/80/69 78/78/67 77/77/67
f  81/81/70 82/82/70 83/83/71
f  84/84/72 82/82/70 81/81/70
f  85/85/73 86/86/73 87/87/73
f  85/85/74 88/88/74 86/86/74
f  89/89/75 90/90/75 91/91/75
f  89/89/76 92/92/76 90/90/76
f  93/93/77 94/94/77 95/95/78
f  96/96/79 94/94/77 93/93/77
f  97/97/80 98/98/80 99/99/81
f  100/100/82 98/98/80 97/97/80
f  101/101/83 102/102/83 103/103/84
f  104/104/85 102/102/83 101/101/83
f  105/105/86 106/106/86 107/107/86
f  108/108/87 106/106/87 105/105/87
f  109/109/88 110/110/88 111/111/88
f  112/112/89 110/110/89 109/109/89
f  113/113/90 114/114/90 115/115/91
f  116/116/92 114/114/90 113/113/90
f  117/117/93 118/118/93 119/119/94
f  120/120/95 118/118/93 117/117/93
f  121/121/96 122/122/96 123/123/97
f  124/124/98 122/122/96 121/121/96
f  125/125/99 126/126/99 127/127/99
f  125/125/100 128/128/100 126/126/100
f  129/129/101 130/130/101 131/131/101
f  129/129/102 132/132/102 130/130/102
f  133/133/103 134/134/103 135/135/104
f  136/136/105 134/134/103 133/133/103
f  137/137/106 138/138/106 139/139/107
f  140/140/108 138/138/106 137/137/106
f  141/141/109 142/142/109 143/143/110
f  144/144/111 142/142/109 141/141/109
f  145/145/112 146/146/112 147/147/112
f  148/148/113 146/146/113 145/145/113
f  149/149/114 150/150/114 151/151/114
f  152/152/115 150/150/115 149/149/115
usemtl _4___Default
f  153/153/116 154/154/117 155/155/118
f  156/156/119 154/154/117 153/153/116
f  157/157/120 158/158/121 159/159/122
f  160/160/123 158/158/121 157/157/120
f  161/161/124 156/156/119 153/153/116
f  162/162/125 156/156/119 161/161/124
f  163/163/126 160/160/123 157/157/120
f  164/164/127 160/160/123 163/163/126
f  165/165/128 166/166/129 167/167/128
f  167/167/128 168/168/130 165/165/128
f  169/169/131 170/170/132 171/171/131
f  171/171/131 172/172/133 169/169/131
