# 
# Wavefront OBJ file
# Converted by the DEEP Exploration Deep Exploration 5 5.0.3.1555 Release
# Right Hemisphere, LTD
# http://www.righthemisphere.com/
# 
mtllib lagerhalle_2_LOD1.mtl
# object MDL-cube1
g MDL_cube1
v -10.69419 22.06378 -4.18127
v 10.69419 22.06378 4.18128
v 10.69419 22.06378 -4.18127
v -10.69419 22.06378 4.18128
v -10.69419 22.06378 -4.18127
v 10.69419 -22.06378 -4.18128
v -10.69419 -22.06378 -4.18128
v 10.69419 22.06378 -4.18127
v -10.69419 22.06378 -4.18127
v -10.69419 -22.06378 4.18127
v -10.69419 22.06378 4.18128
v -10.69419 -22.06378 -4.18128
v 10.69419 22.06378 -4.18127
v 10.69419 -22.06378 4.18127
v 10.69419 -22.06378 -4.18128
v 10.69419 22.06378 4.18128
v -10.69419 22.06378 4.18128
v 10.69419 -22.06378 4.18127
v 10.69419 22.06378 4.18128
v -10.69419 -22.06378 4.18127
v -10.69419 -22.06378 -4.18128
v 10.69419 -22.06378 4.18127
v -10.69419 -22.06378 4.18127
v 10.69419 -22.06378 -4.18128
# 24 verticies
vt 0.70982 0.31916
vt 0.00418 0.59506
vt 0.00418 0.31916
vt 0.70982 0.59506
vt 0.00000 0.00000
vt 1.00000 1.00000
vt 0.00000 1.00000
vt 1.00000 0.00000
vt 0.01345 0.80282
vt 0.98655 0.99014
vt 0.01345 0.99014
vt 0.98655 0.80282
vt 0.99454 0.60593
vt 0.00546 0.79338
vt 0.00546 0.60593
vt 0.99454 0.79338
vt 0.72654 0.58384
vt 0.98464 0.05134
vt 0.98464 0.58384
vt 0.72654 0.05134
vt 0.00615 0.03298
vt 0.71460 0.30997
vt 0.00615 0.30997
vt 0.71460 0.03298
# 24 texture verticies
vn 0.00000 1.00000 0.00000
vn 0.00000 0.00000 -1.00000
vn -1.00000 0.00000 0.00000
vn 1.00000 0.00000 0.00000
vn 0.00000 -0.00000 1.00000
vn 0.00000 -1.00000 -0.00000
# 6 normals
usemtl DefaultLib_Mater
f  1/1/1 2/2/1 3/3/1
f  1/1/1 4/4/1 2/2/1
f  5/5/2 6/6/2 7/7/2
f  5/5/2 8/8/2 6/6/2
f  9/9/3 10/10/3 11/11/3
f  9/9/3 12/12/3 10/10/3
f  13/13/4 14/14/4 15/15/4
f  13/13/4 16/16/4 14/14/4
f  17/17/5 18/18/5 19/19/5
f  17/17/5 20/20/5 18/18/5
f  21/21/6 22/22/6 23/23/6
f  21/21/6 24/24/6 22/22/6
